<svg width="512" height="512" viewBox="0 0 512 512" fill="none" xmlns="http://www.w3.org/2000/svg">
<path d="M256 512C397.385 512 512 397.385 512 256C512 114.615 397.385 0 256 0C114.615 0 0 114.615 0 256C0 397.385 114.615 512 256 512Z" fill="#800000" fill-opacity="0.85"/>
<path d="M512 256C512 255.963 511.999 255.927 511.999 255.89L392.127 136.018L100.5 375.982L235.719 511.201C242.411 511.726 249.173 512 256 512C397.385 512 512 397.385 512 256Z" fill="#800000"/>
<path d="M392.127 136.018H256L243.842 349.394L392.127 337.236V136.018Z" fill="#9ABADB"/>
<path d="M119.873 136.018V337.236L256 349.394V136.018H119.873Z" fill="#D1E8FF"/>
<path d="M411.5 337.236H256L243.842 356.609L256 375.982H411.5V337.236Z" fill="#85B5E4"/>
<path d="M256 337.24H100.5V375.987H256V337.24Z" fill="#F5F5FF"/>
<path d="M373.904 154.24H256L243.842 236.627L256 319.013H373.904V154.24Z" fill="#294B6E"/>
<path d="M256 154.24H138.1V319.01H256V154.24Z" fill="#6283A3"/>
<path d="M209.124 284.901L160.85 236.627L209.124 188.353L222.009 201.238L186.62 236.627L222.009 272.016L209.124 284.901Z" fill="#F5F5FF"/>
<path d="M302.876 284.901L289.991 272.016L325.38 236.627L289.991 201.238L302.876 188.353L351.15 236.627L302.876 284.901Z" fill="#D1E8FF"/>
<path d="M235.824 291.345L253.697 294.901L276.169 181.93L258.296 178.375L235.824 291.345Z" fill="#D1E8FF"/>
</svg>
