<svg id="Capa_1" enable-background="new 0 0 510.954 510.954" height="512" viewBox="0 0 510.954 510.954" width="512" xmlns="http://www.w3.org/2000/svg"><g><path id="XMLID_124_" d="m15.805 392.853c-18.056-21.014-20.926-51.277-7.142-75.311l62.022-108.141 134.74 156.809-116.243 45.039c-25.667 9.945-55.204 2.752-73.376-18.398" fill="#e8a43e"/><path id="XMLID_125_" d="m421.771 411.247-116.243-45.037 134.74-156.809 62.022 108.141c13.784 24.033 10.914 54.297-7.142 75.311-18.102 21.064-47.61 28.382-73.377 18.394z" fill="#e17b47"/><path id="XMLID_126_" d="m286.902 393.952-21.851-7.938 16.236-16.638c1.864-1.91 3.081-4.306 3.52-6.928l37.077-221.997c.292-1.747.232-3.491-.176-5.185l-2.375-9.849 8.248-5.881c13.155-9.38 30.561-10.024 44.345-1.641l82.304 50.061c21.239 12.92 25.84 41.857 9.562 60.721l-132.665 153.74c-10.766 12.478-28.503 17.246-44.225 11.535z" fill="#e8a43e"/><path id="XMLID_129_" d="m180.333 382.419-132.665-153.74c-16.301-18.891-11.65-47.818 9.562-60.721l82.304-50.061c13.784-8.384 31.189-7.74 44.344 1.641l8.246 5.881-2.372 9.845c-.408 1.696-.468 3.442-.176 5.191l37.077 221.995c.438 2.622 1.654 5.017 3.52 6.928l16.237 16.639-21.852 7.936c-15.698 5.702-33.442.962-44.225-11.534z" fill="#f0ce46"/><path id="XMLID_132_" d="m261.971 393.319-6.312 10h-16.306c-21.107 0-38.95-15.109-42.426-35.929l-37.077-221.996c-4.375-26.19 15.817-50.101 42.426-50.101h53.386l43.386 10c26.548 0 46.811 23.854 42.426 50.101l-37.077 201.996c-3.476 20.82-21.318 35.929-42.426 35.929z" fill="#f6e486"/><path id="XMLID_135_" d="m309.048 95.294c-6.695 0-46.751 0-53.389 0v308.025h16.312c21.107 0 38.95-15.109 42.426-35.929l37.077-221.996c4.392-26.29-15.918-50.1-42.426-50.1z" fill="#f0ce46"/></g></svg>