<svg id="Capa_1" enable-background="new 0 0 512 512" height="512" viewBox="0 0 512 512" width="512" xmlns="http://www.w3.org/2000/svg"><g><path d="m94.63 38.65h-30c0 35.64-28.99 64.64-64.63 64.64v30c35.64 0 64.63 28.99 64.63 64.63h30c0-35.64 28.99-64.63 64.63-64.63v-30c-35.64 0-64.63-29-64.63-64.64z" fill="#fff375"/><g fill="#fdbf00"><path d="m512 462.57v30h-19.43v19.43h-30v-19.43h-19.43v-30h19.43v-19.43h30v19.43z"/><path d="m466.993 204.405h30v30h-30z"/><path d="m412.814 152.644h30v30h-30z"/></g><path d="m69.178 466.99h30v30h-30z" fill="#fff375"/><path d="m15 415.228h30v30h-30z" fill="#fff375"/><path d="m241 62.5h30v98.04h-30z" fill="#3960ae"/><path d="m256 62.5h15v98.04h-15z" fill="#293f7f"/><path d="m219.49 0h73.02v76.04h-73.02z" fill="#293f7f"/><path d="m256 0h36.51v76.04h-36.51z" fill="#152453"/><path d="m432.17 328.83s6.8 10.06 6.39 15c-2.19 27.1-10.28 52.52-23 75-2.54 4.5-15.17 13.15-15.17 13.15s1.01 8.38-2.24 12.37c-19.68 24.2-45.42 43.27-74.91 54.92-6.99 2.76-21.57-.01-21.57-.01s-19.58 11.18-29.77 12.05h-.01c-.29.04-.59.06-.89.08-4.94.41-15-6.39-15-6.39s-10.06 6.8-15 6.39c-.3-.02-.6-.04-.89-.08h-.01c-10.19-.87-29.77-12.05-29.77-12.05s-14.58 2.77-21.57.01c-29.49-11.65-55.23-30.72-74.91-54.92-3.25-3.99-2.24-12.37-2.24-12.37s-12.63-8.65-15.17-13.15c-12.72-22.48-20.81-47.9-23-75-.41-4.94 6.39-15 6.39-15s-6.8-10.06-6.39-15c2.16-26.67 10.03-51.72 22.4-73.94 2.51-4.51 15.07-13.17 15.07-13.17s-1.09-8.4 2.12-12.4c19.79-24.67 45.83-44.12 75.73-55.93 5.9-2.33 18.14.92 18.14.92s21.82-11.99 33.22-12.97c.29-.03.58-.05.88-.07 4.94-.41 15 6.39 15 6.39s10.06-6.8 15-6.39c.3.02.59.04.88.07 11.24.96 32.77 12.85 32.77 12.85s12.54-3.19 18.59-.8c29.9 11.81 55.94 31.26 75.73 55.93 3.21 4 2.12 12.4 2.12 12.4s12.56 8.66 15.07 13.17c12.37 22.22 20.24 47.27 22.4 73.94.41 4.94-6.39 15-6.39 15z" fill="#f471b3"/><path d="m432.17 328.83s6.8 10.06 6.39 15c-2.19 27.1-10.28 52.52-23 75-2.54 4.5-15.17 13.15-15.17 13.15s1.01 8.38-2.24 12.37c-19.68 24.2-45.42 43.27-74.91 54.92-6.99 2.76-21.57-.01-21.57-.01s-19.58 11.18-29.77 12.05h-.01c-.29.04-.59.06-.89.08-4.94.41-15-6.39-15-6.39v-352.34s10.06-6.8 15-6.39c.3.02.59.04.88.07 11.24.96 32.77 12.85 32.77 12.85s12.54-3.19 18.59-.8c29.9 11.81 55.94 31.26 75.73 55.93 3.21 4 2.12 12.4 2.12 12.4s12.56 8.66 15.07 13.17c12.37 22.22 20.24 47.27 22.4 73.94.41 4.94-6.39 15-6.39 15z" fill="#c331c8"/><path d="m438.56 343.83c.41-4.94.61-9.95.61-15s-.2-10.06-.61-15h-76.22c-.64-19.85-2.53-39.18-5.6-57.56 22.16-4.12 42.3-9.64 59.42-16.38-5.01-9.02-10.77-17.57-17.19-25.57-14.2 5.09-30.51 9.33-48.34 12.63-4.32-17.1-9.74-33.02-16.21-47.29-3.49-7.71-7.23-14.8-11.18-21.27-16.12-6.36-33.37-10.51-51.36-12.05 19.06 11.17 37.48 41.58 48.93 85.06-15.9 1.85-32.62 3.02-49.81 3.45v-88.58c-4.94-.41-9.95-.61-15-.61s-10.06.2-15 .61v88.58c-17.19-.43-33.91-1.6-49.81-3.45 11.45-43.48 29.87-73.89 48.93-85.06-17.99 1.54-35.24 5.69-51.36 12.05-3.95 6.47-7.69 13.56-11.18 21.27-6.47 14.27-11.89 30.19-16.21 47.29-17.83-3.3-34.14-7.54-48.34-12.63-6.42 8-12.18 16.55-17.19 25.57 17.12 6.74 37.26 12.26 59.42 16.39-3.07 18.37-4.96 37.7-5.6 57.55h-76.22c-.41 4.94-.61 9.95-.61 15s.2 10.06.61 15h76.22c.65 20.31 2.62 40.07 5.82 58.82-22 4.09-42.01 9.54-59.04 16.18 5.08 9.01 10.91 17.54 17.41 25.52 14.08-4.99 30.23-9.15 47.84-12.39 4.26 16.63 9.58 32.12 15.89 46.05 3.49 7.7 7.22 14.8 11.18 21.26 16.12 6.36 33.35 10.5 51.34 12.04-18.86-11.07-37.1-41-48.57-83.78 15.81-1.84 32.41-2.99 49.47-3.42v87.28c4.94.41 9.95.61 15 .61s10.06-.2 15-.61v-87.28c17.06.43 33.66 1.58 49.47 3.42-11.47 42.78-29.71 72.71-48.57 83.78 17.99-1.54 35.22-5.68 51.34-12.04 3.96-6.46 7.69-13.56 11.18-21.26 6.31-13.93 11.63-29.42 15.89-46.05 17.61 3.24 33.76 7.4 47.84 12.39 6.5-7.98 12.33-16.51 17.41-25.52-17.03-6.64-37.04-12.09-59.04-16.18 3.2-18.75 5.17-38.51 5.82-58.82zm-197.56 50.27c-19.24.47-38.02 1.83-55.89 4.02-2.88-16.78-4.79-34.95-5.44-54.29h61.33zm0-80.27h-61.33c.64-18.84 2.46-36.59 5.22-53 17.93 2.19 36.77 3.56 56.11 4.03zm85.89 84.29c-17.87-2.19-36.65-3.55-55.89-4.02v-50.27h61.33c-.65 19.34-2.56 37.51-5.44 54.29zm-55.89-84.29v-48.97c19.34-.47 38.18-1.84 56.11-4.03 2.76 16.41 4.58 34.16 5.22 53z" fill="#c331c8"/><path d="m438.56 343.83c.41-4.94.61-9.95.61-15s-.2-10.06-.61-15h-76.22c-.64-19.85-2.53-39.18-5.6-57.56 22.16-4.12 42.3-9.64 59.42-16.38-5.01-9.02-10.77-17.57-17.19-25.57-14.2 5.09-30.51 9.33-48.34 12.63-4.32-17.1-9.74-33.02-16.21-47.29-3.49-7.71-7.23-14.8-11.18-21.27-16.12-6.36-33.37-10.51-51.36-12.05 19.06 11.17 37.48 41.58 48.93 85.06-15.9 1.85-32.62 3.02-49.81 3.45v-88.58c-4.94-.41-9.95-.61-15-.61v366.34c5.05 0 10.06-.2 15-.61v-87.28c17.06.43 33.66 1.58 49.47 3.42-11.47 42.78-29.71 72.71-48.57 83.78 17.99-1.54 35.22-5.68 51.34-12.04 3.96-6.46 7.69-13.56 11.18-21.26 6.31-13.93 11.63-29.42 15.89-46.05 17.61 3.24 33.76 7.4 47.84 12.39 6.5-7.98 12.33-16.51 17.41-25.52-17.03-6.64-37.04-12.09-59.04-16.18 3.2-18.75 5.17-38.51 5.82-58.82zm-111.67 54.29c-17.87-2.19-36.65-3.55-55.89-4.02v-50.27h61.33c-.65 19.34-2.56 37.51-5.44 54.29zm-55.89-84.29v-48.97c19.34-.47 38.18-1.84 56.11-4.03 2.76 16.41 4.58 34.16 5.22 53z" fill="#8b3cbb"/><path d="m159.26 103.29v30c-35.64 0-64.63 28.99-64.63 64.63h-15v-159.27h15c0 35.64 28.99 64.64 64.63 64.64z" fill="#fdbf00"/><path d="m512 462.57v30h-19.43v19.43h-15v-68.86h15v19.43z" fill="#fe9100"/></g></svg>