<svg width="512" height="512" viewBox="0 0 512 512" fill="none" xmlns="http://www.w3.org/2000/svg">
<path d="M256 512C397.385 512 512 397.385 512 256C512 114.615 397.385 0 256 0C114.615 0 0 114.615 0 256C0 397.385 114.615 512 256 512Z" fill="#800000" fill-opacity="0.85"/>
<path d="M275.478 511.267C395.973 502.201 493.178 409.72 509.551 291.408L382.336 164.194L330.716 144.144L282.89 96.318L87.355 280.091L227.954 420.712L207.878 443.666L275.478 511.267Z" fill="#800000"/>
<path d="M401.446 213.128C401.466 212.458 401.497 211.792 401.497 211.118C401.497 174.068 371.462 144.033 334.412 144.033C325.639 144.033 317.268 145.735 309.588 148.797C304.648 117.099 284.071 90.59 256 77.373L230.459 207.285L256 298.112H401.168C424.64 298.112 443.667 279.084 443.667 255.613C443.667 232.235 424.788 213.279 401.446 213.128Z" fill="#F4F4F4"/>
<path d="M215.49 68.333C162.888 68.333 120.246 110.975 120.246 163.577C120.246 166.645 120.405 169.674 120.688 172.667C90.954 177.81 68.333 203.714 68.333 234.917C68.333 269.819 96.626 298.112 131.528 298.112H256V77.373C243.705 71.585 229.98 68.333 215.49 68.333Z" fill="#F5F5FF"/>
<path d="M256 190.589L241.327 406.71L304.123 392.037V359.197C329.965 343.104 347.168 314.442 347.168 281.758C347.168 231.406 306.351 190.589 256 190.589Z" fill="#FFCD00"/>
<path d="M164.832 281.757C164.832 314.442 182.035 343.103 207.877 359.196V392.036L256 406.71V190.589C205.649 190.589 164.832 231.406 164.832 281.757Z" fill="#FFED94"/>
<path d="M281.813 265.677L256 291.489L248.663 399.373L266.996 392.037V311.594L297.363 281.227L281.813 265.677Z" fill="#FF8E00"/>
<path d="M230.187 265.677L214.637 281.227L245.004 311.594V392.037L256 399.373V291.489L230.187 265.677Z" fill="#FFCD00"/>
<path d="M304.122 392.037H256L241.327 417.852L256 443.667H304.122V392.037Z" fill="#9ABADB"/>
<path d="M256 392.04H207.88V443.67H256V392.04Z" fill="#D1E8FF"/>
</svg>
