<svg id="Capa_1" enable-background="new 0 0 512 512" height="512" viewBox="0 0 512 512" width="512" xmlns="http://www.w3.org/2000/svg"><g><path d="m426.409 7.456-4.336-7.456h-90.073l-30 30v30l30 30 30-30 30.146 30.132c-.747 3.706-1.699 8.13-2.798 13.257-8.54 39.639-25.913 122.454-27.261 243.611h-4.38c-17.271-29.121-84.145-45-131.708-45-39.662 0-93.146 9.988-117.382 28.363l-33.617 36.123-61.93 120.156 1.93 25.358c29.053 0 55.34-11.812 74.35-30.881 30.976 20.21 91.227 30.881 136.65 30.881 40.225 0 98.559-8.101 129.394-25.898 38.642-22.31 82.426-34.102 126.606-34.102 16.538 0 30-13.462 30-30v-65.068c0-121.641-33.589-260.033-85.591-349.476z" fill="#fdc"/><path d="m482 452c16.538 0 30-13.462 30-30v-65.068c0-121.641-33.589-260.032-85.591-349.476l-4.336-7.456h-90.073l-30 30v30l30 30 30-30 30.146 30.132c-.747 3.706-1.699 8.13-2.798 13.257-8.54 39.639-25.913 122.454-27.261 243.611h-4.38c-17.271-29.121-84.145-45-131.708-45v210c40.225 0 98.559-8.101 129.394-25.898 38.643-22.31 82.427-34.102 126.607-34.102z" fill="#ffccb3"/><path d="m15 272h-15v240h15l93.618-181.637c-17.219-34.466-52.471-58.363-93.618-58.363z" fill="#ff6680"/></g></svg>