<svg width="866" height="669" viewBox="0 0 866 669" fill="none" xmlns="http://www.w3.org/2000/svg">
<g clip-path="url(#clip0)">
<path d="M422.22 660.64C421.73 660.16 421.22 659.64 420.86 659.23C420.164 658.463 419.678 657.53 419.45 656.52H419.81L419.98 655.75C422.687 643.177 422.065 630.115 418.177 617.856C414.289 605.597 407.268 594.565 397.81 585.85C397.851 585.795 397.884 585.734 397.91 585.67C402.842 570.832 403.149 554.846 398.79 539.83C403.215 534.225 407.181 528.272 410.65 522.03C422.88 512.68 435.58 499.15 439.49 481.57C439.934 479.664 440.268 477.734 440.49 475.79C441.49 474.79 442.91 472.62 441.41 468.67C441.287 468.349 441.14 468.038 440.97 467.74C440.92 467.65 440.86 467.56 440.8 467.48C440.693 467.304 440.576 467.134 440.45 466.97L440.22 466.71C440.103 466.581 439.979 466.457 439.85 466.34L439.59 466.12L439.19 465.84L438.91 465.67L438.48 465.46L438.21 465.34L437.73 465.18L437.49 465.11C437.263 465.05 437.037 465.003 436.81 464.97C435.285 464.793 433.74 464.947 432.28 465.42C432.28 465.42 428.68 471.66 430.09 474.04C429 475.42 426.09 479.11 422.09 483.85C422.129 479.878 421.73 475.914 420.9 472.03C420.519 470.11 420.029 468.214 419.43 466.35C419.96 465.03 420.33 462.47 417.33 459.49C417.087 459.247 416.827 459.023 416.55 458.82L416.29 458.65C416.119 458.534 415.942 458.427 415.76 458.33L415.45 458.19C415.29 458.12 415.12 458.05 414.96 458L414.64 457.91L414.16 457.81H413.84H413.36H413.06L412.55 457.86H412.3C412.067 457.9 411.84 457.953 411.62 458.02C410.158 458.489 408.815 459.266 407.68 460.3C407.68 460.3 406.98 467.47 409.24 469.06C408.19 473.17 402.9 494.03 395.9 511.03C393.555 513.058 391.094 514.948 388.53 516.69V515.15C388.545 514.867 388.545 514.583 388.53 514.3V514.3C388.501 514.028 388.457 513.758 388.4 513.49L388.53 513.42L389.07 513.12L389.85 512.64L390.35 512.32C390.723 512.06 391.083 511.79 391.43 511.51L391.84 511.16C392.09 510.95 392.32 510.73 392.56 510.51L392.9 510.03C393.187 509.737 393.463 509.43 393.73 509.11L394.02 508.76C394.273 508.447 394.513 508.113 394.74 507.76L395.03 507.33C395.237 507.01 395.433 506.677 395.62 506.33L395.8 506.01C396.03 505.58 396.24 505.14 396.44 504.69L396.6 504.29C396.747 503.93 396.88 503.56 397 503.18C397 503.05 397.09 502.92 397.13 502.79C397.28 502.31 397.41 501.79 397.51 501.31C397.51 501.21 397.51 501.11 397.56 501.01C397.64 500.583 397.707 500.153 397.76 499.72C397.76 499.57 397.76 499.43 397.76 499.28C397.76 498.75 397.84 498.22 397.84 497.67C397.841 494.65 397.062 491.681 395.58 489.05L396.41 488.83L397.02 488.64C397.25 488.56 397.36 488.49 397.33 488.44C396.9 487.86 396.46 487.31 396.01 486.77L395.57 486.27C395.26 485.91 394.94 485.56 394.57 485.27L394.06 484.75C393.74 484.44 393.42 484.13 393.06 483.84L392.56 483.39C392.16 483.04 391.76 482.72 391.35 482.39L391.09 482.18C390.6 481.82 390.09 481.48 389.62 481.18L389.06 480.84C388.74 480.64 388.41 480.45 388.06 480.27L387.41 479.93L386.5 479.49L385.83 479.19C385.51 479.06 385.18 478.93 384.83 478.82L384.22 478.6C383.73 478.44 383.22 478.3 382.75 478.17L381.99 478L381.18 477.83L380.36 477.7L379.61 477.61L378.77 477.54H378.04H377.2C376.733 477.54 376.27 477.563 375.81 477.61C364.93 478.5 355.41 488 355.41 503.09V515.63H372.41V521.31C369.354 522.721 366.765 524.978 364.951 527.813C363.136 530.648 362.171 533.944 362.17 537.31V585.68L347.9 651.98H347.83V652.16L345.03 664.64L366.24 668.03C366.482 667.936 366.683 667.758 366.806 667.529C366.929 667.3 366.966 667.034 366.91 666.78C366.871 666.437 366.787 666.101 366.66 665.78C366.32 664.956 365.916 664.16 365.45 663.4C364.7 662.11 363.81 660.73 363.21 659.48C362.9 658.844 362.668 658.172 362.52 657.48C362.448 657.124 362.401 656.763 362.38 656.4L377.99 605.1H377.92L378.29 603.89C378.29 603.89 398.21 612.43 403.29 629.5C407.44 643.34 404.86 652.31 403.74 655.21H403.67V655.38C403.45 655.93 403.29 656.24 403.29 656.24H403.67V665.63H425.2C426.84 664.8 424.34 662.71 422.22 660.64Z" fill="url(#paint0_linear)"/>
<path d="M386.62 559.38C386.62 559.38 423.76 520.33 411.62 482.8L401.88 484.8C401.88 484.8 388.81 539.8 374.88 547.69C360.95 555.58 386.62 559.38 386.62 559.38Z" fill="#3F3D56"/>
<path opacity="0.05" d="M386.62 559.38C386.62 559.38 423.76 520.33 411.62 482.8L401.88 484.8C401.88 484.8 388.81 539.8 374.88 547.69C360.95 555.58 386.62 559.38 386.62 559.38Z" fill="black"/>
<path opacity="0.2" d="M410.14 483.67L411.76 483.34C423.86 520.87 386.76 559.92 386.76 559.92L385.62 559.73C389.9 555.03 421.43 518.67 410.14 483.67Z" fill="white"/>
<path d="M411.18 483.78C411.18 483.78 413.88 480.42 409.65 476.21C405.42 472 400.24 476.99 400.24 476.99C400.24 476.99 399.5 484.46 401.99 485.64C404.48 486.82 411.18 483.78 411.18 483.78Z" fill="#985454"/>
<path opacity="0.2" d="M410.09 484.03C410.09 484.03 412.79 480.67 408.56 476.46C407.992 475.849 407.287 475.38 406.503 475.094C405.719 474.807 404.879 474.71 404.05 474.81C405.021 474.49 406.063 474.455 407.054 474.709C408.044 474.962 408.942 475.493 409.64 476.24C413.87 480.45 411.17 483.81 411.17 483.81C409.176 484.702 407.09 485.372 404.95 485.81C406.71 485.361 408.429 484.765 410.09 484.03V484.03Z" fill="white"/>
<path d="M787.26 4.96997H60.62C45.4322 4.96997 33.12 17.2821 33.12 32.47V447.55C33.12 462.738 45.4322 475.05 60.62 475.05H787.26C802.448 475.05 814.76 462.738 814.76 447.55V32.47C814.76 17.2821 802.448 4.96997 787.26 4.96997Z" fill="white"/>
<g opacity="0.2">
<path opacity="0.2" d="M23.13 439.49L23.22 439.19C23.22 439.19 22.11 439.03 23.13 439.49Z" fill="url(#paint1_linear)"/>
</g>
<g opacity="0.2">
<path opacity="0.2" d="M126.32 457.85C126.215 457.507 126.085 457.173 125.93 456.85C125.93 456.75 125.82 456.66 125.77 456.56C125.67 456.368 125.56 456.181 125.44 456C125.37 455.9 125.29 455.81 125.22 455.71C125.107 455.564 124.987 455.424 124.86 455.29L124.6 455.04C124.47 454.92 124.34 454.81 124.2 454.71L123.92 454.51L123.48 454.25L123.2 454.1L122.7 453.89L122.45 453.79C122.21 453.71 121.973 453.643 121.74 453.59C120.146 453.288 118.505 453.332 116.93 453.72C116.93 453.72 112.34 460.49 114.11 462.92L113.53 462.74C113.53 462.74 79.44 500.74 60.21 507.84C59.7166 507.507 59.2066 507.193 58.68 506.9V499.79C58.6957 499.494 58.6957 499.196 58.68 498.9C58.648 498.614 58.6013 498.331 58.54 498.05L58.68 497.97L59.25 497.65L60.08 497.15L60.61 496.81C61.0033 496.537 61.3866 496.25 61.76 495.95L62.19 495.58C62.45 495.36 62.7 495.13 62.95 494.89L63.39 494.46C63.6966 494.147 63.99 493.813 64.27 493.46L64.58 493.08C64.8466 492.753 65.1 492.42 65.34 492.08L65.65 491.62C65.87 491.287 66.08 490.953 66.28 490.62L66.47 490.28C66.71 489.83 66.94 489.36 67.14 488.88L67.31 488.46C67.4633 488.073 67.6066 487.683 67.74 487.29C67.74 487.15 67.83 487.02 67.88 486.88C68.04 486.37 68.17 485.88 68.28 485.32C68.28 485.22 68.28 485.11 68.34 485C68.4266 484.553 68.4966 484.1 68.55 483.64C68.55 483.49 68.55 483.33 68.55 483.18C68.6 482.62 68.64 482.05 68.64 481.48C68.6457 477.217 67.1838 473.082 64.5 469.77C65.96 467.49 66.91 466.15 66.91 466.15C66.03 465.55 65.17 464.99 64.31 464.47L63.48 463.98C62.91 463.64 62.33 463.3 61.77 462.98L60.77 462.47C60.26 462.2 59.77 461.94 59.24 461.69L58.24 461.24C57.75 461.02 57.24 460.8 56.79 460.61L55.79 460.23C55.31 460.04 54.79 459.87 54.35 459.71L53.45 459.41C52.96 459.25 52.45 459.12 51.98 458.99L51.18 458.77C50.63 458.64 50.09 458.52 49.55 458.42L48.97 458.3C48.24 458.17 47.51 458.07 46.79 458C42.3271 457.526 37.8176 458.215 33.7 460C33.92 454.76 34.8 450.45 36.64 447.78L36.19 447.63L36.03 447.78C36.03 447.78 35.49 447.9 34.66 448.05C34.3943 448.477 34.1571 448.921 33.95 449.38C34.3178 447.529 35.0265 445.762 36.04 444.17L35.59 444.02C36.24 443.36 38.59 440.47 35.43 435.75C31.82 430.34 25.2 434.55 25.2 434.55C24.6866 436.332 24.3516 438.161 24.2 440.01C23.69 439.81 23.34 439.65 23.1 439.53C19.9301 450.711 18.2027 462.251 17.96 473.87C6.03996 490.8 1.09997 515.79 0.139969 521.18L0.0699615 521.61C-3.84524e-05 522 -0.0300293 522.21 -0.0300293 522.21L30.97 522.93C30.97 523.04 30.97 523.14 30.97 523.25V572.33L8.34996 620.03C8.34996 620.03 16.9 620.34 29.9 622.03L26.33 647.55L25.14 654.71H46.62C49.01 649.94 37.07 647.55 37.07 647.55H36.8L41.46 623.74C43.52 624.087 45.6366 624.467 47.81 624.88C50.9999 625.495 54.2331 625.86 57.48 625.97C60.1683 626.064 62.8599 625.947 65.53 625.62C67.1 638.53 65.04 646.24 64.64 647.56H64.51L63.32 654.72H84.8C86.88 650.56 78.07 648.21 75.8 647.72L75.9 647.02C77.0072 638.966 77.292 630.821 76.75 622.71C79.5131 621.586 82.0892 620.049 84.39 618.15V618.15L84.69 617.89L84.78 617.8L68.78 572.93C71.78 560.23 61.36 546.93 66.92 540.22C72.48 533.51 69.07 525.04 68.46 523.59C83.46 517.03 113.85 500.59 122.37 472.12C122.995 470.118 123.503 468.081 123.89 466.02C123.89 466.02 128.19 464.08 126.32 457.85Z" fill="url(#paint2_linear)"/>
</g>
<path d="M26.54 447.83C26.54 447.83 10.25 499.2 37.54 527.64L45.43 521.64C45.43 521.64 29.29 465.57 38.32 452.4C22.4 447.03 26.54 447.83 26.54 447.83Z" fill="#FF5252"/>
<path d="M37.8 452.36C37.8 452.36 41.11 449.6 37.8 444.63C34.49 439.66 28.42 443.53 28.42 443.53C28.42 443.53 26.21 450.7 28.42 452.36C30.63 454.02 37.8 452.36 37.8 452.36Z" fill="#F6B9AD"/>
<path d="M50.65 518.59H51.98C55.8792 518.59 59.04 515.429 59.04 511.53V502.75C59.04 498.851 55.8792 495.69 51.98 495.69H50.65C46.7509 495.69 43.59 498.851 43.59 502.75V511.53C43.59 515.429 46.7509 518.59 50.65 518.59Z" fill="#F6B9AD"/>
<path opacity="0.2" d="M44.35 524.91C44.35 524.91 28.41 469.53 37.09 455.91C37.86 455.77 38.35 455.66 38.35 455.66L38.49 455.52L38.9 455.66C29.9 468.83 46.01 524.9 46.01 524.9L38.12 530.9L37.43 530.16L44.35 524.91Z" fill="white"/>
<path d="M51.0401 503.69C60.4896 503.69 68.1501 496.03 68.1501 486.58C68.1501 477.13 60.4896 469.47 51.0401 469.47C41.5905 469.47 33.9301 477.13 33.9301 486.58C33.9301 496.03 41.5905 503.69 51.0401 503.69Z" fill="#F6B9AD"/>
<path opacity="0.2" d="M57.11 510.86V503.41C57.1077 502.865 57.0473 502.322 56.9299 501.79C60.2651 500.071 62.9427 497.303 64.5502 493.912C66.1578 490.522 66.6062 486.697 65.8264 483.026C65.0466 479.356 63.0819 476.044 60.2348 473.599C57.3877 471.155 53.8161 469.715 50.0699 469.5H51.0699C54.8955 469.514 58.6059 470.81 61.6084 473.181C64.611 475.551 66.7325 478.86 67.634 482.578C68.5355 486.296 68.1651 490.208 66.5819 493.691C64.9987 497.173 62.294 500.025 58.8999 501.79C59.0173 502.322 59.0777 502.865 59.0799 503.41V510.86C59.0883 511.958 58.8606 513.046 58.4124 514.048C57.9642 515.051 57.3059 515.946 56.482 516.672C55.658 517.398 54.6878 517.939 53.6367 518.258C52.5857 518.577 51.4785 518.666 50.39 518.52C52.2467 518.271 53.9504 517.358 55.1859 515.95C56.4213 514.541 57.1048 512.733 57.11 510.86V510.86Z" fill="white"/>
<path d="M33.66 571.84C33.66 571.84 66.66 575.57 67.88 571.84C71.82 559.77 61.26 546.77 66.56 540.41C72.04 533.84 67.88 524.94 67.88 524.94C67.88 522.693 67.4375 520.468 66.5776 518.392C65.7178 516.316 64.4574 514.43 62.8686 512.841C61.2798 511.253 59.3936 509.992 57.3177 509.132C55.2419 508.273 53.017 507.83 50.77 507.83V507.83C48.5231 507.83 46.2982 508.273 44.2223 509.132C42.1464 509.992 40.2603 511.253 38.6714 512.841C37.0826 514.43 35.8223 516.316 34.9625 518.392C34.1026 520.468 33.66 522.693 33.66 524.94V571.84Z" fill="#FF5252"/>
<path opacity="0.2" d="M66.6 540.41C72.08 533.84 67.92 524.94 67.92 524.94C67.92 522.693 67.4774 520.468 66.6175 518.392C65.7577 516.316 64.4974 514.43 62.9086 512.841C61.3197 511.253 59.4336 509.992 57.3577 509.132C55.2818 508.273 53.0569 507.83 50.81 507.83C50.44 507.83 50.08 507.83 49.71 507.89C54.0441 508.167 58.1102 510.084 61.0821 513.251C64.0539 516.417 65.7086 520.597 65.71 524.94C65.71 524.94 69.87 533.84 64.39 540.41C59.08 546.78 69.64 559.78 65.71 571.84C65.33 572.99 61.93 573.43 57.41 573.49C62.99 573.55 67.47 573.17 67.9 571.84C71.9 559.77 61.3 546.77 66.6 540.41Z" fill="white"/>
<path d="M60.9 570.75C72.97 587.83 78.27 613.62 74.83 638.44L74.73 639.18H64.42C64.42 639.18 67.61 629.8 64.42 613.24C62.4588 603.323 56.9032 594.481 48.82 588.41L38.9 639.18H29.33L38.9 570.75H60.9Z" fill="#F6B9AD"/>
<path d="M118.9 472.33C118.9 472.33 122.9 470.66 121.16 464.94C119.42 459.22 112.51 461.14 112.51 461.14C112.51 461.14 108.3 467.35 109.92 469.58C111.54 471.81 118.9 472.33 118.9 472.33Z" fill="#F6B9AD"/>
<path d="M60.34 527.69C60.34 527.69 111.6 511.08 118.9 472.33L109.4 469.42C109.4 469.42 71.67 511.54 55.71 511.84C39.75 512.14 60.34 527.69 60.34 527.69Z" fill="#FF5252"/>
<path opacity="0.2" d="M117.12 472.37L118.7 472.86C111.44 511.62 60.17 528.23 60.17 528.23L59.26 527.52C65.29 525.4 110.35 508.52 117.12 472.37Z" fill="white"/>
<g opacity="0.2">
<path opacity="0.2" d="M46.6299 588.4L36.7 639.17H38.8999L48.5399 589.88C47.9289 589.355 47.2914 588.861 46.6299 588.4V588.4Z" fill="white"/>
<path opacity="0.2" d="M60.9 570.75H58.71C70.78 587.83 76.08 613.62 72.64 638.44L72.54 639.18H74.73L74.83 638.44C78.25 613.62 72.9 587.82 60.9 570.75Z" fill="white"/>
</g>
<path opacity="0.2" d="M117.81 472.03C117.81 472.03 121.81 470.36 120.07 464.64C119.864 463.831 119.469 463.082 118.918 462.454C118.367 461.827 117.676 461.339 116.9 461.03C117.905 461.212 118.838 461.678 119.587 462.373C120.337 463.067 120.872 463.961 121.13 464.95C122.84 470.67 118.87 472.34 118.87 472.34C116.692 472.172 114.539 471.766 112.45 471.13C114.209 471.578 116.001 471.879 117.81 472.03V472.03Z" fill="white"/>
<path d="M33.66 569.97L12.9 613.78C25.035 614.385 37.1119 615.849 49.04 618.16C72.04 622.54 82.99 611.59 82.99 611.59L68.16 569.98L33.66 569.97Z" fill="#263238"/>
<path d="M39.18 638.97C39.18 638.97 50.18 641.16 47.94 645.54H28.23L29.33 638.97H39.18Z" fill="#FF5252"/>
<path d="M74.22 638.97C74.22 638.97 85.22 641.16 82.98 645.54H63.27L64.37 638.97H74.22Z" fill="#FF5252"/>
<path d="M66.56 472.51C66.56 472.51 40.27 509.74 52.32 525.03L5.22998 523.93C5.22998 523.93 18.37 439.66 66.56 472.51Z" fill="#FCCC63"/>
<path opacity="0.2" d="M66.56 472.51C59.77 467.88 53.68 465.58 48.22 465.04C52.8154 466.485 57.1575 468.638 61.09 471.42C61.09 471.42 34.81 508.65 46.85 523.99L5.39999 522.99C5.28999 523.61 5.23999 523.99 5.23999 523.99L52.33 525.09C40.27 509.74 66.56 472.51 66.56 472.51Z" fill="white"/>
<path opacity="0.2" d="M68.1499 569.97H64.8999L79.7299 611.58C79.7299 611.58 72.6499 618.64 57.9399 619.15C74.8799 619.69 83.0099 611.58 83.0099 611.58L68.1499 569.97Z" fill="white"/>
<path opacity="0.2" d="M39.18 638.97H36.99C36.99 638.97 47.99 641.16 45.75 645.54H47.9C50.13 641.16 39.18 638.97 39.18 638.97Z" fill="white"/>
<path opacity="0.2" d="M74.22 638.97H72.03C72.03 638.97 83.03 641.16 80.79 645.54H82.98C85.17 641.16 74.22 638.97 74.22 638.97Z" fill="white"/>
<g opacity="0.2">
<path opacity="0.2" d="M824.63 453.31L824.73 453.55C825.53 453.03 824.63 453.31 824.63 453.31Z" fill="url(#paint3_linear)"/>
</g>
<g opacity="0.2">
<path opacity="0.2" d="M837.22 637.03L854.59 632.03L850.9 621.55L850.85 621.4H850.79L831.43 565.23L826.43 523.18C826.367 522.646 826.277 522.115 826.16 521.59C841.97 494.51 826.16 456.82 824.75 453.54C824.57 453.66 824.29 453.82 823.89 454.04C823.578 452.534 823.115 451.064 822.51 449.65C822.51 449.65 816.66 446.83 814.22 451.65C812.09 455.84 814.29 457.99 814.9 458.47L814.55 458.64C815.536 459.851 816.289 461.234 816.77 462.72C816.552 462.371 816.311 462.037 816.05 461.72C815.35 461.72 814.89 461.63 814.89 461.63L814.75 461.52L814.4 461.69C816.61 464.22 817.84 468.97 818.4 474.78C817.651 473.956 816.831 473.2 815.95 472.52C812.124 469.644 807.367 468.29 802.6 468.72V468.72L801.73 468.82C801.237 468.887 800.75 468.977 800.27 469.09L799.91 469.17L799.3 469.33L798.6 469.55L798.1 469.72L797.24 470.06L796.92 470.2C796.57 470.36 796.22 470.53 795.92 470.71C794.797 471.431 793.6 472.031 792.35 472.5C792.18 472.55 792 472.58 791.83 472.62C790.387 472.895 788.894 472.654 787.61 471.94L787.18 471.68C787.014 471.572 786.854 471.455 786.7 471.33C786.611 471.728 786.611 472.142 786.7 472.54C786.894 473.489 787.454 474.323 788.26 474.86C788.484 475.014 788.726 475.142 788.98 475.24C789.359 475.385 789.764 475.45 790.17 475.43C790.308 475.424 790.445 475.407 790.58 475.38L790.48 475.44C790.24 475.59 790 475.73 789.75 475.85H789.7C789.43 475.98 789.16 476.1 788.89 476.21C787.505 476.74 786.015 476.939 784.54 476.79V476.79L784.06 476.73C783.82 476.73 783.58 476.66 783.35 476.6C783.442 476.755 783.542 476.905 783.65 477.05L783.76 477.18L783.99 477.46L784.12 477.6L784.37 477.85L784.51 477.98L784.81 478.22L784.93 478.31L785.37 478.6L785.52 478.68L785.84 478.85L786.05 478.94L786.33 479.06L786.56 479.14L786.84 479.23L787.07 479.3L787.39 479.37L787.78 479.44H788.07H788.35H789.13H789.42H789.66H789.94C790.494 479.326 791.027 479.127 791.52 478.85C791.21 479.04 790.89 479.21 790.52 479.38L790.04 479.62L789.54 479.86L789.05 480.08L788.54 480.29L788.05 480.48L787.52 480.67L787.03 480.83L786.47 481L786 481.13L785.39 481.28L784.95 481.38L784.25 481.51L783.88 481.57L782.82 481.71C783.443 481.811 784.039 482.039 784.57 482.38C784.91 482.567 785.273 482.708 785.65 482.8C785.816 482.811 785.983 482.811 786.15 482.8H786.77H787.18L787.71 482.73H788.11H788.59C789.596 482.712 790.594 482.906 791.52 483.3C792.009 483.531 792.458 483.838 792.85 484.21C792.73 484.47 792.61 484.74 792.5 485.01C792.39 485.28 792.32 485.48 792.24 485.71C792.08 486.183 791.94 486.663 791.82 487.15C791.401 488.911 791.297 490.732 791.51 492.53C791.51 492.86 791.6 493.19 791.66 493.53L791.71 493.8C791.763 494.06 791.823 494.317 791.89 494.57V494.77C791.977 495.083 792.07 495.393 792.17 495.7L792.24 495.88C792.327 496.133 792.42 496.383 792.52 496.63L792.61 496.85C792.866 497.445 793.16 498.022 793.49 498.58L793.59 498.75C793.743 499.003 793.903 499.25 794.07 499.49V499.56C794.263 499.833 794.463 500.1 794.67 500.36V500.42C794.863 500.66 795.063 500.893 795.27 501.12L795.34 501.2C795.793 501.694 796.277 502.158 796.79 502.59V502.59C798.121 503.696 799.629 504.572 801.25 505.18C801.237 505.42 801.237 505.66 801.25 505.9V505.9C801.237 506.146 801.237 506.393 801.25 506.64L801.93 512.38C801.623 512.593 801.323 512.817 801.03 513.05C786.68 508.47 761.19 466.98 761.19 466.98L760.7 467.04C762.5 465.32 759.76 459.12 759.76 459.12C758.503 458.555 757.137 458.275 755.76 458.3H755.49H755.37H755.16H755.03H754.83H754.69H754.5H754.36L754.16 458.36H754.03L753.82 458.45H753.71L753.4 458.61L753.11 458.79L753.01 458.86L752.81 459.01L752.7 459.1L752.53 459.26L752.42 459.37L752.26 459.54L752.15 459.66L751.99 459.86L751.89 459.99L751.73 460.24L751.65 460.36C751.57 460.49 751.5 460.62 751.42 460.76C748.98 465.56 752.24 467.69 752.24 467.69C752.252 469.425 752.366 471.158 752.58 472.88C756.15 504.95 793.37 525.72 795.27 526.76C794.74 528.85 790.46 547.34 800.27 568.61C800.298 568.66 800.331 568.707 800.37 568.75C793.043 577.299 788.074 587.612 785.953 598.67C783.833 609.727 784.635 621.147 788.28 631.8L788.5 632.45H788.82C788.808 632.601 788.788 632.751 788.76 632.9C788.705 633.169 788.628 633.433 788.53 633.69C788.361 634.135 788.139 634.558 787.87 634.95C787.58 635.38 787.23 635.82 786.87 636.27L786.49 636.74C784.95 638.6 783.4 640.41 784.77 640.91L785.77 640.79L803.65 639.03L802.65 630.87H802.98C802.98 630.87 802.82 630.63 802.56 630.17V630.02H802.5C801.22 627.61 798.06 620.07 800.25 607.62C802.95 592.25 819.39 582.78 819.39 582.78L819.83 583.78H819.77L838.62 626.78C838.62 626.95 838.62 627.13 838.62 627.32C838.608 627.75 838.558 628.179 838.47 628.6C838.405 628.939 838.318 629.273 838.21 629.6C837.58 631.43 836.37 633.6 835.92 635.23C835.855 635.45 835.805 635.674 835.77 635.9C835.72 636.154 835.72 636.416 835.77 636.67C835.808 636.83 835.89 636.977 836.007 637.093C836.123 637.21 836.27 637.292 836.43 637.33V637.33L836.67 637.26L837.19 637.11L837.22 637.03ZM816.98 510.73C816.613 510.577 816.243 510.44 815.87 510.32L815.24 504.95C815.19 504.54 815.103 504.135 814.98 503.74C816.081 503.04 817.089 502.203 817.98 501.25C817.68 504.69 817.32 507.91 816.98 510.73Z" fill="url(#paint4_linear)"/>
</g>
<path d="M752.63 472.74C752.63 472.74 749.02 470.39 751.72 465.07C754.42 459.75 760.91 462.87 760.91 462.87C760.91 462.87 763.91 469.74 761.91 471.64C759.91 473.54 752.63 472.74 752.63 472.74Z" fill="#CA7070"/>
<path d="M808.19 652.16L793.08 653.94C793.207 654.64 793.184 655.358 793.012 656.048C792.839 656.738 792.522 657.383 792.08 657.94C790.32 660.53 786.57 663.85 788.61 664.59L809.34 662.14L808.19 652.16Z" fill="#00695C"/>
<path opacity="0.2" d="M793.21 657.86C793.652 657.303 793.969 656.658 794.142 655.968C794.314 655.278 794.337 654.56 794.21 653.86L793.11 653.99C793.237 654.69 793.214 655.408 793.041 656.098C792.869 656.788 792.552 657.433 792.11 657.99C790.35 660.58 786.6 663.9 788.64 664.64L789.74 664.51C787.71 663.77 791.46 660.45 793.21 657.86Z" fill="white"/>
<path d="M861.62 642.68L847.73 646.68C848.319 648.315 848.301 650.107 847.68 651.73C846.52 655.12 843.53 659.66 845.68 660.29L865.76 654.56L861.62 642.68Z" fill="#00695C"/>
<path d="M832.62 456.5C832.62 456.5 854.82 505.6 831.04 537.05L822.5 531.98C822.5 531.98 831.95 474.4 821.43 462.39C836.64 455.25 832.62 456.5 832.62 456.5Z" fill="#00695C"/>
<path d="M821.98 462.32C821.98 462.32 818.37 459.97 821.07 454.65C823.77 449.33 830.26 452.45 830.26 452.45C830.26 452.45 833.26 459.32 831.26 461.22C829.26 463.12 821.98 462.32 821.98 462.32Z" fill="#CA7070"/>
<path opacity="0.2" d="M848.78 651.6C849.401 649.977 849.419 648.185 848.83 646.55L861.68 642.86L861.62 642.69L847.73 646.69C848.319 648.325 848.301 650.117 847.68 651.74C846.52 655.13 843.53 659.67 845.68 660.3L846.52 660.06C844.9 659.12 847.66 654.84 848.78 651.6Z" fill="white"/>
<path d="M814.305 506.827L812.984 506.983C809.112 507.441 806.344 510.951 806.801 514.823L807.832 523.542C808.29 527.415 811.8 530.183 815.672 529.725L816.993 529.569C820.865 529.111 823.633 525.601 823.175 521.729L822.145 513.01C821.687 509.138 818.177 506.37 814.305 506.827Z" fill="#CA7070"/>
<path opacity="0.2" d="M823.98 535.14C823.98 535.14 833.31 478.27 823.1 465.78C822.32 465.78 821.82 465.68 821.82 465.68L821.66 465.56L821.27 465.74C831.79 477.74 822.34 535.33 822.34 535.33L830.88 540.4C831.08 540.13 831.28 539.86 831.47 539.58L823.98 535.14Z" fill="white"/>
<path d="M814.856 514.82C824.24 513.711 830.949 505.204 829.84 495.82C828.731 486.436 820.224 479.727 810.84 480.836C801.456 481.945 794.747 490.452 795.856 499.836C796.965 509.221 805.472 515.929 814.856 514.82Z" fill="#CA7070"/>
<path opacity="0.2" d="M809.66 522.68L808.79 515.28C808.732 514.738 808.732 514.192 808.79 513.65C805.277 512.335 802.293 509.903 800.298 506.726C798.303 503.55 797.407 499.806 797.748 496.07C798.089 492.335 799.648 488.815 802.185 486.052C804.722 483.289 808.097 481.437 811.79 480.78L810.79 480.86C806.986 481.315 803.445 483.034 800.733 485.741C798.022 488.448 796.298 491.987 795.837 495.79C795.376 499.593 796.205 503.441 798.191 506.718C800.177 509.994 803.205 512.509 806.79 513.86C806.732 514.402 806.732 514.948 806.79 515.49L807.66 522.89C807.78 523.982 808.134 525.036 808.696 525.979C809.259 526.923 810.018 527.734 810.922 528.359C811.825 528.984 812.853 529.407 813.934 529.601C815.015 529.794 816.126 529.753 817.19 529.48C815.327 529.441 813.541 528.732 812.158 527.483C810.775 526.235 809.888 524.529 809.66 522.68V522.68Z" fill="white"/>
<path d="M840.1 580.49C840.1 580.49 807.77 588.06 806.1 584.49C794.53 559.49 800.6 537.91 800.6 537.91C800.336 535.677 800.515 533.415 801.127 531.251C801.738 529.088 802.77 527.066 804.163 525.302C805.556 523.537 807.283 522.064 809.245 520.968C811.208 519.871 813.367 519.172 815.6 518.91V518.91C817.833 518.646 820.095 518.825 822.259 519.437C824.422 520.048 826.444 521.08 828.208 522.473C829.973 523.866 831.446 525.593 832.542 527.555C833.639 529.518 834.338 531.677 834.6 533.91L840.1 580.49Z" fill="#00695C"/>
<path d="M840.1 580.49L862.9 646.7L848.1 648.45L826.8 599.84C826.8 599.84 808.59 610.33 805.6 627.35C802.61 644.37 808.6 653.11 808.6 653.11L792.78 655.03L792.53 654.31C788.481 642.511 787.606 629.856 789.991 617.612C792.376 605.368 797.938 593.966 806.12 584.55" fill="#263238"/>
<path opacity="0.2" d="M808.04 584.28C796.47 559.28 802.54 537.7 802.54 537.7C802.031 533.384 803.183 529.037 805.763 525.54C808.343 522.042 812.156 519.658 816.43 518.87C816.06 518.87 815.7 518.87 815.33 518.96C813.097 519.222 810.938 519.921 808.975 521.018C807.013 522.114 805.286 523.587 803.893 525.352C802.5 527.116 801.468 529.138 800.857 531.301C800.245 533.465 800.066 535.727 800.33 537.96C800.33 537.96 794.26 559.52 805.83 584.54C806.42 585.81 810.94 585.66 816.51 584.94C812.01 585.41 808.55 585.38 808.04 584.28Z" fill="white"/>
<path d="M800.32 537.68C800.32 537.68 752.85 512.17 752.64 472.74L762.5 471.57C762.5 471.57 792.09 519.75 807.74 522.91C823.39 526.07 800.32 537.68 800.32 537.68Z" fill="#00695C"/>
<g opacity="0.2">
<path opacity="0.2" d="M827.25 601.03L848.16 648.75L850.35 648.49L829.05 599.88C829.05 599.88 828.37 600.25 827.25 601.03Z" fill="white"/>
<path opacity="0.2" d="M808.35 584.52L806.16 584.78C797.978 594.196 792.416 605.598 790.031 617.842C787.646 630.085 788.521 642.741 792.57 654.54L792.82 655.26L795.01 655L794.76 654.28C790.711 642.481 789.836 629.826 792.221 617.582C794.606 605.338 800.168 593.936 808.35 584.52V584.52Z" fill="white"/>
</g>
<path opacity="0.2" d="M754.34 473.09L752.7 473.28C752.91 512.71 800.38 538.22 800.38 538.22L801.38 537.68C795.9 534.54 754.54 509.87 754.34 473.09Z" fill="white"/>
<path d="M798.39 491.87C799.75 493.87 800.39 496.22 801.18 498.47C802.87 503.1 805.85 507.57 810.37 509.53C812.87 510.529 815.567 510.933 818.25 510.71C822.32 510.49 826.61 509.18 829.14 505.98C830.693 503.824 831.605 501.272 831.77 498.62C832.174 494.685 831.586 490.712 830.059 487.063C828.532 483.413 826.116 480.205 823.03 477.73C816.77 472.93 807.68 471.97 800.76 475.73C799.518 476.534 798.194 477.205 796.81 477.73C795.741 478.033 794.615 478.074 793.527 477.85C792.439 477.625 791.421 477.142 790.56 476.44C790.451 477.032 790.483 477.641 790.655 478.219C790.826 478.796 791.131 479.324 791.545 479.761C791.96 480.198 792.471 480.53 793.039 480.732C793.606 480.933 794.213 480.998 794.81 480.92C793.624 481.674 792.3 482.186 790.915 482.426C789.53 482.666 788.111 482.63 786.74 482.32C787.668 483.79 789.114 484.858 790.792 485.312C792.47 485.766 794.258 485.572 795.8 484.77C792.872 486.51 789.599 487.589 786.21 487.93C786.92 487.86 788.45 488.99 789.34 489.14C790.436 489.186 791.533 489.136 792.62 488.99C793.751 488.913 794.882 489.14 795.896 489.646C796.911 490.152 797.772 490.92 798.39 491.87V491.87Z" fill="#263238"/>
<g opacity="0.2">
<path opacity="0.2" d="M794.8 480.92C793.613 481.675 792.287 482.185 790.9 482.42C792.677 482.304 794.396 481.744 795.9 480.79C795.369 480.855 794.831 480.81 794.319 480.657C793.807 480.504 793.332 480.247 792.924 479.901C792.516 479.555 792.184 479.129 791.95 478.648C791.715 478.168 791.582 477.644 791.56 477.11C791.207 476.918 790.872 476.694 790.56 476.44C790.451 477.031 790.484 477.64 790.654 478.216C790.825 478.792 791.129 479.32 791.543 479.756C791.956 480.193 792.466 480.526 793.032 480.728C793.598 480.93 794.204 480.996 794.8 480.92V480.92Z" fill="white"/>
<path opacity="0.2" d="M797.9 477.6C799.284 477.075 800.608 476.405 801.85 475.6C803.839 474.529 806.003 473.821 808.24 473.51C805.622 473.728 803.076 474.48 800.76 475.72C799.518 476.525 798.194 477.195 796.81 477.72C796.62 477.78 796.42 477.81 796.23 477.85C796.795 477.839 797.356 477.755 797.9 477.6V477.6Z" fill="white"/>
<path opacity="0.2" d="M790.43 489.03C789.54 488.88 788.01 487.75 787.3 487.82C790.689 487.479 793.962 486.4 796.89 484.66C796.225 485.032 795.495 485.276 794.74 485.38C792.085 486.777 789.185 487.65 786.2 487.95C786.91 487.88 788.44 489.01 789.33 489.16C790.097 489.251 790.873 489.221 791.63 489.07C791.23 489.107 790.827 489.094 790.43 489.03V489.03Z" fill="white"/>
<path opacity="0.2" d="M819.35 510.58C816.667 510.803 813.97 510.399 811.47 509.4C806.95 507.4 803.97 502.97 802.28 498.34C801.46 496.09 800.86 493.71 799.49 491.74C798.871 490.788 798.008 490.02 796.992 489.513C795.976 489.007 794.843 488.781 793.71 488.86C793.164 488.869 792.619 488.92 792.08 489.01C792.26 489.01 792.43 489.01 792.62 489.01C793.753 488.931 794.886 489.157 795.902 489.663C796.918 490.17 797.781 490.938 798.4 491.89C799.76 493.89 800.4 496.24 801.19 498.49C802.88 503.12 805.86 507.59 810.38 509.55C812.88 510.549 815.577 510.953 818.26 510.73C818.89 510.73 819.53 510.63 820.17 510.54L819.35 510.58Z" fill="white"/>
<path opacity="0.2" d="M794.04 485.42C792.878 485.473 791.72 485.236 790.673 484.73C789.625 484.223 788.72 483.464 788.04 482.52C787.596 482.482 787.155 482.415 786.72 482.32C787.482 483.518 788.59 484.456 789.897 485.01C791.205 485.564 792.649 485.707 794.04 485.42V485.42Z" fill="white"/>
</g>
<path opacity="0.2" d="M753.73 472.61C753.73 472.61 750.12 470.26 752.82 464.94C753.166 464.177 753.688 463.507 754.344 462.986C754.999 462.464 755.769 462.106 756.59 461.94C755.569 461.94 754.569 462.232 753.708 462.781C752.847 463.33 752.161 464.114 751.73 465.04C749.02 470.36 752.64 472.71 752.64 472.71C754.81 472.948 757 472.948 759.17 472.71C757.357 472.828 755.537 472.795 753.73 472.61Z" fill="white"/>
<path d="M403.39 652.41H418.6C418.545 653.127 418.645 653.847 418.893 654.522C419.142 655.197 419.533 655.81 420.04 656.32C422.09 658.69 426.2 661.54 424.27 662.52H403.39V652.41Z" fill="#3F3D56"/>
<path opacity="0.2" d="M418.9 656.32C418.393 655.81 418.002 655.197 417.753 654.522C417.505 653.847 417.405 653.127 417.46 652.41H418.56C418.505 653.127 418.605 653.847 418.853 654.522C419.102 655.197 419.493 655.81 420 656.32C422.05 658.69 426.16 661.54 424.23 662.52H423.13C425.09 661.54 420.98 658.69 418.9 656.32Z" fill="white"/>
<path d="M349.21 649.27L363.47 651.6C363.081 653.291 363.312 655.065 364.12 656.6C365.67 659.83 369.12 663.98 367.07 664.87L346.46 661.54L349.21 649.27Z" fill="#3F3D56"/>
<path opacity="0.2" d="M363.02 656.62C362.212 655.085 361.981 653.311 362.37 651.62L349.17 649.46V649.29L363.43 651.62C363.042 653.311 363.272 655.085 364.08 656.62C365.63 659.85 369.08 664 367.03 664.89L366.17 664.75C367.76 663.63 364.5 659.7 363.02 656.62Z" fill="white"/>
<path d="M380.28 531.73H381.61C385.509 531.73 388.67 528.569 388.67 524.67V515.89C388.67 511.991 385.509 508.83 381.61 508.83H380.28C376.381 508.83 373.22 511.991 373.22 515.89V524.67C373.22 528.569 376.381 531.73 380.28 531.73Z" fill="#985454"/>
<path d="M380.67 516.83C390.12 516.83 397.78 509.17 397.78 499.72C397.78 490.27 390.12 482.61 380.67 482.61C371.22 482.61 363.56 490.27 363.56 499.72C363.56 509.17 371.22 516.83 380.67 516.83Z" fill="#985454"/>
<path opacity="0.2" d="M386.74 524.03V516.58C386.738 516.035 386.677 515.492 386.56 514.96C389.895 513.241 392.573 510.473 394.18 507.082C395.788 503.692 396.236 499.867 395.456 496.196C394.677 492.526 392.712 489.214 389.865 486.77C387.018 484.325 383.446 482.885 379.7 482.67H380.7C384.536 482.671 388.26 483.962 391.275 486.334C394.29 488.707 396.419 492.023 397.323 495.751C398.226 499.48 397.85 503.403 396.255 506.892C394.661 510.381 391.94 513.233 388.53 514.99C388.647 515.522 388.708 516.065 388.71 516.61V524.03C388.718 525.128 388.491 526.216 388.042 527.218C387.594 528.221 386.936 529.116 386.112 529.842C385.288 530.568 384.318 531.109 383.267 531.428C382.216 531.747 381.109 531.836 380.02 531.69C381.877 531.441 383.58 530.528 384.816 529.12C386.051 527.711 386.735 525.903 386.74 524.03V524.03Z" fill="white"/>
<path d="M363.29 585.03C363.29 585.03 396.29 588.76 397.51 585.03C406.06 558.82 397.51 538.12 397.51 538.12C397.51 535.873 397.067 533.648 396.208 531.572C395.348 529.496 394.087 527.61 392.499 526.021C390.91 524.433 389.024 523.172 386.948 522.312C384.872 521.453 382.647 521.01 380.4 521.01C375.878 521.01 371.539 522.8 368.333 525.99C365.127 529.179 363.314 533.508 363.29 538.03V585.03Z" fill="#3F3D56"/>
<path d="M363.29 585.03L348.39 653.46H363.29L378.74 602.69C378.74 602.69 398.06 610.97 403.02 627.52C407.98 644.07 403.02 653.46 403.02 653.46H419.02L419.18 652.72C421.818 640.527 421.203 627.855 417.398 615.974C413.593 604.093 406.731 593.422 397.5 585.03V585.03" fill="#263238"/>
<path opacity="0.2" d="M395.57 585.03C404.12 558.82 395.57 538.12 395.57 538.12C395.569 533.775 393.915 529.593 390.943 526.423C387.972 523.253 383.906 521.332 379.57 521.05C379.94 521.05 380.3 521.05 380.67 521.05C385.185 521.05 389.518 522.835 392.723 526.015C395.928 529.196 397.746 533.515 397.78 538.03C397.78 538.03 406.33 558.72 397.78 584.94C397.34 586.27 392.83 586.65 387.22 586.59C391.77 586.57 395.19 586.14 395.57 585.03Z" fill="white"/>
<g opacity="0.2">
<path opacity="0.2" d="M378.45 603.85L363.28 653.69H361.07L376.52 602.92C376.52 602.92 377.26 603.23 378.45 603.85Z" fill="white"/>
<path opacity="0.2" d="M395.29 585.26H397.5C406.731 593.652 413.593 604.323 417.398 616.204C421.203 628.085 421.818 640.757 419.18 652.95L419.02 653.69H416.81L416.97 652.95C419.608 640.757 418.993 628.085 415.188 616.204C411.383 604.323 404.521 593.652 395.29 585.26V585.26Z" fill="white"/>
</g>
<path d="M384.69 537.79C384.69 537.79 434.63 517.54 439.09 478.36L429.41 476.14C429.41 476.14 394.8 520.86 378.9 522.3C363 523.74 384.69 537.79 384.69 537.79Z" fill="#3F3D56"/>
<path opacity="0.2" d="M437.35 478.53L438.96 478.9C434.5 518.08 384.56 538.33 384.56 538.33L383.56 537.68C389.46 535.15 433.19 515.03 437.35 478.53Z" fill="white"/>
<path d="M438.25 479.03C438.25 479.03 442.09 477.08 439.98 471.5C437.87 465.92 431.08 468.33 431.08 468.33C431.08 468.33 427.32 474.83 429.08 476.94C430.84 479.05 438.25 479.03 438.25 479.03Z" fill="#985454"/>
<path opacity="0.2" d="M437.17 478.81C437.17 478.81 441.01 476.86 438.9 471.28C438.634 470.489 438.184 469.772 437.588 469.188C436.992 468.604 436.266 468.17 435.47 467.92C436.486 468.03 437.45 468.428 438.247 469.068C439.044 469.708 439.642 470.562 439.97 471.53C442.09 477.11 438.24 479.06 438.24 479.06C436.056 479.051 433.88 478.803 431.75 478.32C433.54 478.634 435.353 478.798 437.17 478.81V478.81Z" fill="white"/>
<path d="M381.9 494.03L380.9 517.03H356.76V504.89C356.76 480.37 382.68 471.06 397.28 490.77C397.64 491.25 381.9 494.03 381.9 494.03Z" fill="#263238"/>
<path opacity="0.2" d="M376.54 480.19C382.69 480.7 389 484.04 393.99 490.78C394.35 491.26 378.66 494.07 378.66 494.07L377.56 517.07H380.9L382 494.07C382 494.07 397.69 491.27 397.33 490.78C391.39 482.83 383.67 479.6 376.54 480.19Z" fill="white"/>
<path d="M80.928 47.392V92H102.368V87.264H86.752V47.392H80.928ZM106.377 74.336C106.377 85.216 113.609 92.576 122.953 92.576C129.417 92.576 133.961 89.248 136.073 85.472V92H141.961V56.928H136.073V63.328C134.025 59.68 129.545 56.352 123.017 56.352C113.609 56.352 106.377 63.392 106.377 74.336ZM136.073 74.4C136.073 82.656 130.569 87.456 124.169 87.456C117.769 87.456 112.329 82.592 112.329 74.336C112.329 66.08 117.769 61.408 124.169 61.408C130.569 61.408 136.073 66.272 136.073 74.4ZM195.426 47.392H167.138V52.448H188.514L166.882 87.392V92H195.554V86.944H173.794L195.426 52V47.392ZM218.403 61.28C224.419 61.28 229.539 65.056 229.475 71.904H207.331C207.97 65.056 212.707 61.28 218.403 61.28ZM234.787 81.184H228.515C227.235 84.96 223.907 87.648 218.659 87.648C212.707 87.648 207.715 83.744 207.267 76.64H235.299C235.427 75.424 235.491 74.4 235.491 73.12C235.491 63.52 228.835 56.352 218.659 56.352C208.419 56.352 201.315 63.328 201.315 74.4C201.315 85.536 208.675 92.576 218.659 92.576C227.363 92.576 232.995 87.584 234.787 81.184ZM249.002 63.392V56.928H243.178V108.64H249.002V85.536C251.178 89.12 255.722 92.576 262.122 92.576C271.53 92.576 278.762 85.216 278.762 74.336C278.762 63.392 271.53 56.352 262.122 56.352C255.722 56.352 251.114 59.68 249.002 63.392ZM272.81 74.336C272.81 82.592 267.37 87.456 260.906 87.456C254.57 87.456 249.002 82.656 249.002 74.4C249.002 66.272 254.57 61.408 260.906 61.408C267.37 61.408 272.81 66.08 272.81 74.336ZM292.252 63.392V56.928H286.428V108.64H292.252V85.536C294.428 89.12 298.972 92.576 305.372 92.576C314.78 92.576 322.012 85.216 322.012 74.336C322.012 63.392 314.78 56.352 305.372 56.352C298.972 56.352 294.364 59.68 292.252 63.392ZM316.06 74.336C316.06 82.592 310.62 87.456 304.156 87.456C297.82 87.456 292.252 82.656 292.252 74.4C292.252 66.272 297.82 61.408 304.156 61.408C310.62 61.408 316.06 66.08 316.06 74.336ZM362.958 74.4C362.958 63.328 355.214 56.352 345.23 56.352C335.31 56.352 327.502 63.328 327.502 74.4C327.502 85.536 335.054 92.576 344.974 92.576C354.958 92.576 362.958 85.536 362.958 74.4ZM333.454 74.4C333.454 65.568 339.022 61.408 345.166 61.408C351.182 61.408 357.006 65.568 357.006 74.4C357.006 83.296 351.054 87.456 344.974 87.456C338.894 87.456 333.454 83.296 333.454 74.4ZM370.616 92H376.44V44.64H370.616V92ZM384.19 74.336C384.19 85.216 391.422 92.576 400.766 92.576C407.23 92.576 411.774 89.248 413.886 85.472V92H419.774V56.928H413.886V63.328C411.838 59.68 407.358 56.352 400.83 56.352C391.422 56.352 384.19 63.392 384.19 74.336ZM413.886 74.4C413.886 82.656 408.382 87.456 401.982 87.456C395.582 87.456 390.142 82.592 390.142 74.336C390.142 66.08 395.582 61.408 401.982 61.408C408.382 61.408 413.886 66.272 413.886 74.4Z" fill="#800000"/>
<path d="M82.032 227.216V221.072H85.248C87.744 221.072 88.8 222.224 88.8 224.168C88.8 226.04 87.744 227.216 85.248 227.216H82.032ZM91.032 224.168C91.032 221.432 89.184 219.272 85.248 219.272H79.848V236H82.032V229.016H85.248C89.4 229.016 91.032 226.712 91.032 224.168ZM92.9304 229.376C92.9304 233.456 95.6424 236.216 99.1464 236.216C101.57 236.216 103.274 234.968 104.066 233.552V236H106.274V222.848H104.066V225.248C103.298 223.88 101.618 222.632 99.1704 222.632C95.6424 222.632 92.9304 225.272 92.9304 229.376ZM104.066 229.4C104.066 232.496 102.002 234.296 99.6024 234.296C97.2024 234.296 95.1624 232.472 95.1624 229.376C95.1624 226.28 97.2024 224.528 99.6024 224.528C102.002 224.528 104.066 226.352 104.066 229.4ZM119.421 232.424C119.325 227.72 111.693 229.424 111.693 226.304C111.693 225.248 112.653 224.48 114.261 224.48C116.013 224.48 117.021 225.44 117.117 226.76H119.301C119.157 224.192 117.237 222.632 114.333 222.632C111.405 222.632 109.509 224.288 109.509 226.304C109.509 231.2 117.285 229.496 117.285 232.424C117.285 233.504 116.325 234.368 114.597 234.368C112.749 234.368 111.621 233.408 111.501 232.136H109.245C109.389 234.536 111.549 236.216 114.621 236.216C117.525 236.216 119.421 234.584 119.421 232.424ZM122.984 232.4C122.984 235.04 124.304 236 126.632 236H128.6V234.152H126.992C125.648 234.152 125.168 233.696 125.168 232.4V224.648H128.6V222.848H125.168V219.536H122.984V222.848H121.28V224.648H122.984V232.4ZM131.246 236H133.43V222.848H131.246V236ZM132.374 220.712C133.166 220.712 133.814 220.064 133.814 219.224C133.814 218.384 133.166 217.736 132.374 217.736C131.534 217.736 130.886 218.384 130.886 219.224C130.886 220.064 131.534 220.712 132.374 220.712ZM136.337 229.4C136.337 233.576 139.001 236.216 142.745 236.216C146.009 236.216 148.145 234.392 148.817 231.776H146.465C145.985 233.432 144.689 234.368 142.745 234.368C140.345 234.368 138.569 232.664 138.569 229.4C138.569 226.184 140.345 224.48 142.745 224.48C144.689 224.48 146.009 225.488 146.465 227.072H148.817C148.145 224.312 146.009 222.632 142.745 222.632C139.001 222.632 136.337 225.272 136.337 229.4ZM150.915 229.4C150.915 233.576 153.579 236.216 157.323 236.216C160.587 236.216 162.723 234.392 163.395 231.776H161.043C160.563 233.432 159.267 234.368 157.323 234.368C154.923 234.368 153.147 232.664 153.147 229.4C153.147 226.184 154.923 224.48 157.323 224.48C159.267 224.48 160.587 225.488 161.043 227.072H163.395C162.723 224.312 160.587 222.632 157.323 222.632C153.579 222.632 150.915 225.272 150.915 229.4ZM171.901 224.48C174.157 224.48 176.077 225.896 176.053 228.464H167.749C167.989 225.896 169.765 224.48 171.901 224.48ZM178.045 231.944H175.693C175.213 233.36 173.965 234.368 171.997 234.368C169.765 234.368 167.893 232.904 167.725 230.24H178.237C178.285 229.784 178.309 229.4 178.309 228.92C178.309 225.32 175.813 222.632 171.997 222.632C168.157 222.632 165.493 225.248 165.493 229.4C165.493 233.576 168.253 236.216 171.997 236.216C175.261 236.216 177.373 234.344 178.045 231.944ZM183.376 228.848C183.376 225.8 184.96 224.864 187.048 224.864H187.624V222.608C185.536 222.608 184.12 223.52 183.376 224.984V222.848H181.192V236H183.376V228.848ZM190.145 236H192.329V222.848H190.145V236ZM191.273 220.712C192.065 220.712 192.713 220.064 192.713 219.224C192.713 218.384 192.065 217.736 191.273 217.736C190.433 217.736 189.785 218.384 189.785 219.224C189.785 220.064 190.433 220.712 191.273 220.712ZM195.235 229.376C195.235 233.456 197.947 236.216 201.451 236.216C203.875 236.216 205.579 234.968 206.371 233.552V236H208.579V222.848H206.371V225.248C205.603 223.88 203.923 222.632 201.475 222.632C197.947 222.632 195.235 225.272 195.235 229.376ZM206.371 229.4C206.371 232.496 204.307 234.296 201.907 234.296C199.507 234.296 197.467 232.472 197.467 229.376C197.467 226.28 199.507 224.528 201.907 224.528C204.307 224.528 206.371 226.352 206.371 229.4ZM217.852 229.376C217.852 233.456 220.564 236.216 224.068 236.216C226.492 236.216 228.196 234.968 228.988 233.552V236H231.196V222.848H228.988V225.248C228.22 223.88 226.54 222.632 224.092 222.632C220.564 222.632 217.852 225.272 217.852 229.376ZM228.988 229.4C228.988 232.496 226.924 234.296 224.524 234.296C222.124 234.296 220.084 232.472 220.084 229.376C220.084 226.28 222.124 224.528 224.524 224.528C226.924 224.528 228.988 226.352 228.988 229.4ZM237.071 228.848C237.071 225.8 238.655 224.864 240.743 224.864H241.319V222.608C239.231 222.608 237.815 223.52 237.071 224.984V222.848H234.887V236H237.071V228.848ZM244.32 232.4C244.32 235.04 245.64 236 247.968 236H249.936V234.152H248.328C246.984 234.152 246.504 233.696 246.504 232.4V224.648H249.936V222.848H246.504V219.536H244.32V222.848H242.616V224.648H244.32V232.4ZM252.582 236H254.766V222.848H252.582V236ZM253.71 220.712C254.502 220.712 255.15 220.064 255.15 219.224C255.15 218.384 254.502 217.736 253.71 217.736C252.87 217.736 252.222 218.384 252.222 219.224C252.222 220.064 252.87 220.712 253.71 220.712ZM257.673 229.376C257.673 233.456 260.385 236.216 263.913 236.216C266.313 236.216 268.017 234.944 268.809 233.528V236.288C268.809 239.096 267.057 240.584 264.729 240.584C262.569 240.584 261.009 239.504 260.529 237.92H258.369C258.801 240.728 261.273 242.48 264.729 242.48C268.593 242.48 271.017 239.912 271.017 236.288V222.848H268.809V225.248C268.041 223.832 266.313 222.632 263.913 222.632C260.385 222.632 257.673 225.272 257.673 229.376ZM268.809 229.4C268.809 232.496 266.745 234.296 264.345 234.296C261.945 234.296 259.905 232.472 259.905 229.376C259.905 226.28 261.945 224.528 264.345 224.528C266.745 224.528 268.809 226.352 268.809 229.4ZM274.707 236H276.891V222.848H274.707V236ZM275.835 220.712C276.627 220.712 277.275 220.064 277.275 219.224C277.275 218.384 276.627 217.736 275.835 217.736C274.995 217.736 274.347 218.384 274.347 219.224C274.347 220.064 274.995 220.712 275.835 220.712ZM279.798 229.376C279.798 233.456 282.51 236.216 286.014 236.216C288.438 236.216 290.142 234.968 290.934 233.552V236H293.142V222.848H290.934V225.248C290.166 223.88 288.486 222.632 286.038 222.632C282.51 222.632 279.798 225.272 279.798 229.376ZM290.934 229.4C290.934 232.496 288.87 234.296 286.47 234.296C284.07 234.296 282.03 232.472 282.03 229.376C282.03 226.28 284.07 224.528 286.47 224.528C288.87 224.528 290.934 226.352 290.934 229.4ZM306.456 236H308.616V228.248C308.616 224.48 306.288 222.608 303.24 222.608C301.464 222.608 299.88 223.352 299.016 224.72V222.848H296.832V236H299.016V228.728C299.016 225.896 300.552 224.504 302.784 224.504C304.992 224.504 306.456 225.872 306.456 228.56V236ZM311.368 229.376C311.368 233.456 314.08 236.216 317.584 236.216C320.008 236.216 321.712 234.968 322.504 233.552V236H324.712V222.848H322.504V225.248C321.736 223.88 320.056 222.632 317.608 222.632C314.08 222.632 311.368 225.272 311.368 229.376ZM322.504 229.4C322.504 232.496 320.44 234.296 318.04 234.296C315.64 234.296 313.6 232.472 313.6 229.376C313.6 226.28 315.64 224.528 318.04 224.528C320.44 224.528 322.504 226.352 322.504 229.4ZM328.403 236H330.587V218.24H328.403V236ZM339.901 224.48C342.157 224.48 344.077 225.896 344.053 228.464H335.749C335.989 225.896 337.765 224.48 339.901 224.48ZM346.045 231.944H343.693C343.213 233.36 341.965 234.368 339.997 234.368C337.765 234.368 335.893 232.904 335.725 230.24H346.237C346.285 229.784 346.309 229.4 346.309 228.92C346.309 225.32 343.813 222.632 339.997 222.632C336.157 222.632 333.493 225.248 333.493 229.4C333.493 233.576 336.253 236.216 339.997 236.216C343.261 236.216 345.373 234.344 346.045 231.944ZM89.472 272H91.632V264.248C91.632 260.48 89.304 258.608 86.256 258.608C84.48 258.608 82.896 259.352 82.032 260.72V258.848H79.848V272H82.032V264.728C82.032 261.896 83.568 260.504 85.8 260.504C88.008 260.504 89.472 261.872 89.472 264.56V272ZM100.792 260.48C103.048 260.48 104.968 261.896 104.944 264.464H96.6396C96.8796 261.896 98.6556 260.48 100.792 260.48ZM106.936 267.944H104.584C104.104 269.36 102.856 270.368 100.888 270.368C98.6556 270.368 96.7836 268.904 96.6156 266.24H107.128C107.176 265.784 107.2 265.4 107.2 264.92C107.2 261.32 104.704 258.632 100.888 258.632C97.0476 258.632 94.3836 261.248 94.3836 265.4C94.3836 269.576 97.1436 272.216 100.888 272.216C104.152 272.216 106.264 270.344 106.936 267.944ZM110.082 272H112.266V254.24H110.082V272ZM115.989 272H118.173V254.24H115.989V272ZM121.079 265.376C121.079 269.456 123.791 272.216 127.295 272.216C129.719 272.216 131.423 270.968 132.215 269.552V272H134.423V258.848H132.215V261.248C131.447 259.88 129.767 258.632 127.319 258.632C123.791 258.632 121.079 261.272 121.079 265.376ZM132.215 265.4C132.215 268.496 130.151 270.296 127.751 270.296C125.351 270.296 123.311 268.472 123.311 265.376C123.311 262.28 125.351 260.528 127.751 260.528C130.151 260.528 132.215 262.352 132.215 265.4ZM143.696 265.4C143.696 269.576 146.36 272.216 150.104 272.216C153.368 272.216 155.504 270.392 156.176 267.776H153.824C153.344 269.432 152.048 270.368 150.104 270.368C147.704 270.368 145.928 268.664 145.928 265.4C145.928 262.184 147.704 260.48 150.104 260.48C152.048 260.48 153.368 261.488 153.824 263.072H156.176C155.504 260.312 153.368 258.632 150.104 258.632C146.36 258.632 143.696 261.272 143.696 265.4ZM158.274 265.376C158.274 269.456 160.986 272.216 164.49 272.216C166.914 272.216 168.618 270.968 169.41 269.552V272H171.618V258.848H169.41V261.248C168.642 259.88 166.962 258.632 164.514 258.632C160.986 258.632 158.274 261.272 158.274 265.376ZM169.41 265.4C169.41 268.496 167.346 270.296 164.946 270.296C162.546 270.296 160.506 268.472 160.506 265.376C160.506 262.28 162.546 260.528 164.946 260.528C167.346 260.528 169.41 262.352 169.41 265.4ZM177.493 261.272V258.848H175.309V278.24H177.493V269.576C178.309 270.92 180.013 272.216 182.413 272.216C185.941 272.216 188.653 269.456 188.653 265.376C188.653 261.272 185.941 258.632 182.413 258.632C180.013 258.632 178.285 259.88 177.493 261.272ZM186.421 265.376C186.421 268.472 184.381 270.296 181.957 270.296C179.581 270.296 177.493 268.496 177.493 265.4C177.493 262.352 179.581 260.528 181.957 260.528C184.381 260.528 186.421 262.28 186.421 265.376ZM191.528 272H193.712V258.848H191.528V272ZM192.656 256.712C193.448 256.712 194.096 256.064 194.096 255.224C194.096 254.384 193.448 253.736 192.656 253.736C191.816 253.736 191.168 254.384 191.168 255.224C191.168 256.064 191.816 256.712 192.656 256.712ZM197.914 268.4C197.914 271.04 199.234 272 201.562 272H203.53V270.152H201.922C200.578 270.152 200.098 269.696 200.098 268.4V260.648H203.53V258.848H200.098V255.536H197.914V258.848H196.21V260.648H197.914V268.4ZM205.36 265.376C205.36 269.456 208.072 272.216 211.576 272.216C214 272.216 215.704 270.968 216.496 269.552V272H218.704V258.848H216.496V261.248C215.728 259.88 214.048 258.632 211.6 258.632C208.072 258.632 205.36 261.272 205.36 265.376ZM216.496 265.4C216.496 268.496 214.432 270.296 212.032 270.296C209.632 270.296 207.592 268.472 207.592 265.376C207.592 262.28 209.632 260.528 212.032 260.528C214.432 260.528 216.496 262.352 216.496 265.4ZM222.395 272H224.579V254.24H222.395V272ZM233.893 260.48C236.149 260.48 238.069 261.896 238.045 264.464H229.741C229.981 261.896 231.757 260.48 233.893 260.48ZM240.037 267.944H237.685C237.205 269.36 235.957 270.368 233.989 270.368C231.757 270.368 229.885 268.904 229.717 266.24H240.229C240.277 265.784 240.301 265.4 240.301 264.92C240.301 261.32 237.805 258.632 233.989 258.632C230.149 258.632 227.485 261.248 227.485 265.4C227.485 269.576 230.245 272.216 233.989 272.216C237.253 272.216 239.365 270.344 240.037 267.944ZM241.288 275.432H242.752L245.44 268.976H243.04L241.288 275.432ZM266.004 258.848H263.82V266.072C263.82 268.904 262.308 270.296 260.052 270.296C257.844 270.296 256.38 268.928 256.38 266.264V258.848H254.22V266.552C254.22 270.32 256.596 272.192 259.62 272.192C261.372 272.192 262.98 271.424 263.82 270.056V272H266.004V258.848ZM279.316 272H281.476V264.248C281.476 260.48 279.148 258.608 276.1 258.608C274.324 258.608 272.74 259.352 271.876 260.72V258.848H269.692V272H271.876V264.728C271.876 261.896 273.412 260.504 275.644 260.504C277.852 260.504 279.316 261.872 279.316 264.56V272ZM285.043 272H287.227V258.848H285.043V272ZM286.171 256.712C286.963 256.712 287.611 256.064 287.611 255.224C287.611 254.384 286.963 253.736 286.171 253.736C285.331 253.736 284.683 254.384 284.683 255.224C284.683 256.064 285.331 256.712 286.171 256.712ZM290.134 265.4C290.134 269.576 292.798 272.216 296.542 272.216C299.806 272.216 301.942 270.392 302.614 267.776H300.262C299.782 269.432 298.486 270.368 296.542 270.368C294.142 270.368 292.366 268.664 292.366 265.4C292.366 262.184 294.142 260.48 296.542 260.48C298.486 260.48 299.806 261.488 300.262 263.072H302.614C301.942 260.312 299.806 258.632 296.542 258.632C292.798 258.632 290.134 261.272 290.134 265.4ZM304.712 265.376C304.712 269.456 307.424 272.216 310.928 272.216C313.352 272.216 315.056 270.968 315.848 269.552V272H318.056V258.848H315.848V261.248C315.08 259.88 313.4 258.632 310.952 258.632C307.424 258.632 304.712 261.272 304.712 265.376ZM315.848 265.4C315.848 268.496 313.784 270.296 311.384 270.296C308.984 270.296 306.944 268.472 306.944 265.376C306.944 262.28 308.984 260.528 311.384 260.528C313.784 260.528 315.848 262.352 315.848 265.4ZM333.737 260.48C335.993 260.48 337.913 261.896 337.889 264.464H329.585C329.825 261.896 331.601 260.48 333.737 260.48ZM339.881 267.944H337.529C337.049 269.36 335.801 270.368 333.833 270.368C331.601 270.368 329.729 268.904 329.561 266.24H340.073C340.121 265.784 340.145 265.4 340.145 264.92C340.145 261.32 337.649 258.632 333.833 258.632C329.993 258.632 327.329 261.248 327.329 265.4C327.329 269.576 330.089 272.216 333.833 272.216C337.097 272.216 339.209 270.344 339.881 267.944ZM80.256 308H82.44V296.648H85.2V294.848H82.44V293.912C82.44 292.208 83.088 291.488 85.056 291.488V289.664C81.696 289.664 80.256 290.984 80.256 293.912V294.848H78.552V296.648H80.256V308ZM86.9304 301.376C86.9304 305.456 89.6424 308.216 93.1464 308.216C95.5704 308.216 97.2744 306.968 98.0664 305.552V308H100.274V294.848H98.0664V297.248C97.2984 295.88 95.6184 294.632 93.1704 294.632C89.6424 294.632 86.9304 297.272 86.9304 301.376ZM98.0664 301.4C98.0664 304.496 96.0024 306.296 93.6024 306.296C91.2024 306.296 89.1624 304.472 89.1624 301.376C89.1624 298.28 91.2024 296.528 93.6024 296.528C96.0024 296.528 98.0664 298.352 98.0664 301.4ZM122.949 308H125.109V300.248C125.109 296.48 122.781 294.608 119.781 294.608C117.765 294.608 115.893 295.64 115.125 297.536C114.261 295.568 112.461 294.608 110.301 294.608C108.573 294.608 107.013 295.352 106.149 296.744V294.848H103.965V308H106.149V300.752C106.149 297.92 107.661 296.504 109.869 296.504C112.029 296.504 113.469 297.872 113.469 300.56V308H115.629V300.752C115.629 297.92 117.141 296.504 119.349 296.504C121.509 296.504 122.949 297.872 122.949 300.56V308ZM141.172 301.4C141.172 297.248 138.268 294.632 134.524 294.632C130.804 294.632 127.876 297.248 127.876 301.4C127.876 305.576 130.708 308.216 134.428 308.216C138.172 308.216 141.172 305.576 141.172 301.4ZM130.108 301.4C130.108 298.088 132.196 296.528 134.5 296.528C136.756 296.528 138.94 298.088 138.94 301.4C138.94 304.736 136.708 306.296 134.428 306.296C132.148 306.296 130.108 304.736 130.108 301.4ZM153.499 304.424C153.403 299.72 145.771 301.424 145.771 298.304C145.771 297.248 146.731 296.48 148.339 296.48C150.091 296.48 151.099 297.44 151.195 298.76H153.379C153.235 296.192 151.315 294.632 148.411 294.632C145.483 294.632 143.587 296.288 143.587 298.304C143.587 303.2 151.363 301.496 151.363 304.424C151.363 305.504 150.403 306.368 148.675 306.368C146.827 306.368 145.699 305.408 145.579 304.136H143.323C143.467 306.536 145.627 308.216 148.699 308.216C151.603 308.216 153.499 306.584 153.499 304.424ZM155.766 301.376C155.766 305.456 158.478 308.216 161.982 308.216C164.406 308.216 166.11 306.968 166.902 305.552V308H169.11V294.848H166.902V297.248C166.134 295.88 164.454 294.632 162.006 294.632C158.478 294.632 155.766 297.272 155.766 301.376ZM166.902 301.4C166.902 304.496 164.838 306.296 162.438 306.296C160.038 306.296 157.998 304.472 157.998 301.376C157.998 298.28 160.038 296.528 162.438 296.528C164.838 296.528 166.902 298.352 166.902 301.4ZM181.384 297.272V294.848H179.2V314.24H181.384V305.576C182.2 306.92 183.904 308.216 186.304 308.216C189.832 308.216 192.544 305.456 192.544 301.376C192.544 297.272 189.832 294.632 186.304 294.632C183.904 294.632 182.176 295.88 181.384 297.272ZM190.312 301.376C190.312 304.472 188.272 306.296 185.848 306.296C183.472 306.296 181.384 304.496 181.384 301.4C181.384 298.352 183.472 296.528 185.848 296.528C188.272 296.528 190.312 298.28 190.312 301.376ZM201.01 296.48C203.266 296.48 205.186 297.896 205.162 300.464H196.858C197.098 297.896 198.874 296.48 201.01 296.48ZM207.154 303.944H204.802C204.322 305.36 203.074 306.368 201.106 306.368C198.874 306.368 197.002 304.904 196.834 302.24H207.346C207.394 301.784 207.418 301.4 207.418 300.92C207.418 297.32 204.922 294.632 201.106 294.632C197.266 294.632 194.602 297.248 194.602 301.4C194.602 305.576 197.362 308.216 201.106 308.216C204.37 308.216 206.482 306.344 207.154 303.944ZM212.485 300.848C212.485 297.8 214.069 296.864 216.157 296.864H216.733V294.608C214.645 294.608 213.229 295.52 212.485 296.984V294.848H210.301V308H212.485V300.848ZM225.653 308H227.837V290.24H225.653V308ZM230.743 301.376C230.743 305.456 233.455 308.216 236.959 308.216C239.383 308.216 241.087 306.968 241.879 305.552V308H244.087V294.848H241.879V297.248C241.111 295.88 239.431 294.632 236.983 294.632C233.455 294.632 230.743 297.272 230.743 301.376ZM241.879 301.4C241.879 304.496 239.815 306.296 237.415 306.296C235.015 306.296 232.975 304.472 232.975 301.376C232.975 298.28 235.015 296.528 237.415 296.528C239.815 296.528 241.879 298.352 241.879 301.4ZM263.632 304.424C263.536 299.72 255.904 301.424 255.904 298.304C255.904 297.248 256.864 296.48 258.472 296.48C260.224 296.48 261.232 297.44 261.328 298.76H263.512C263.368 296.192 261.448 294.632 258.544 294.632C255.616 294.632 253.72 296.288 253.72 298.304C253.72 303.2 261.496 301.496 261.496 304.424C261.496 305.504 260.536 306.368 258.808 306.368C256.96 306.368 255.832 305.408 255.712 304.136H253.456C253.6 306.536 255.76 308.216 258.832 308.216C261.736 308.216 263.632 306.584 263.632 304.424ZM278.379 294.848H276.195V302.072C276.195 304.904 274.683 306.296 272.427 306.296C270.219 306.296 268.755 304.928 268.755 302.264V294.848H266.595V302.552C266.595 306.32 268.971 308.192 271.995 308.192C273.747 308.192 275.355 307.424 276.195 306.056V308H278.379V294.848ZM281.251 301.376C281.251 305.456 283.963 308.216 287.467 308.216C289.891 308.216 291.595 306.968 292.387 305.552V308H294.595V294.848H292.387V297.248C291.619 295.88 289.939 294.632 287.491 294.632C283.963 294.632 281.251 297.272 281.251 301.376ZM292.387 301.4C292.387 304.496 290.323 306.296 287.923 306.296C285.523 306.296 283.483 304.472 283.483 301.376C283.483 298.28 285.523 296.528 287.923 296.528C290.323 296.528 292.387 298.352 292.387 301.4ZM89.304 340.424C89.208 335.72 81.576 337.424 81.576 334.304C81.576 333.248 82.536 332.48 84.144 332.48C85.896 332.48 86.904 333.44 87 334.76H89.184C89.04 332.192 87.12 330.632 84.216 330.632C81.288 330.632 79.392 332.288 79.392 334.304C79.392 339.2 87.168 337.496 87.168 340.424C87.168 341.504 86.208 342.368 84.48 342.368C82.632 342.368 81.504 341.408 81.384 340.136H79.128C79.272 342.536 81.432 344.216 84.504 344.216C87.408 344.216 89.304 342.584 89.304 340.424ZM94.5711 333.272V330.848H92.3871V350.24H94.5711V341.576C95.3871 342.92 97.0911 344.216 99.4911 344.216C103.019 344.216 105.731 341.456 105.731 337.376C105.731 333.272 103.019 330.632 99.4911 330.632C97.0911 330.632 95.3631 331.88 94.5711 333.272ZM103.499 337.376C103.499 340.472 101.459 342.296 99.0351 342.296C96.6591 342.296 94.5711 340.496 94.5711 337.4C94.5711 334.352 96.6591 332.528 99.0351 332.528C101.459 332.528 103.499 334.28 103.499 337.376ZM114.198 332.48C116.454 332.48 118.374 333.896 118.35 336.464H110.046C110.286 333.896 112.062 332.48 114.198 332.48ZM120.342 339.944H117.99C117.51 341.36 116.262 342.368 114.294 342.368C112.062 342.368 110.19 340.904 110.022 338.24H120.534C120.582 337.784 120.606 337.4 120.606 336.92C120.606 333.32 118.11 330.632 114.294 330.632C110.454 330.632 107.79 333.248 107.79 337.4C107.79 341.576 110.55 344.216 114.294 344.216C117.558 344.216 119.67 342.344 120.342 339.944ZM122.673 337.4C122.673 341.576 125.337 344.216 129.081 344.216C132.345 344.216 134.481 342.392 135.153 339.776H132.801C132.321 341.432 131.025 342.368 129.081 342.368C126.681 342.368 124.905 340.664 124.905 337.4C124.905 334.184 126.681 332.48 129.081 332.48C131.025 332.48 132.345 333.488 132.801 335.072H135.153C134.481 332.312 132.345 330.632 129.081 330.632C125.337 330.632 122.673 333.272 122.673 337.4ZM138.067 344H140.251V330.848H138.067V344ZM139.195 328.712C139.987 328.712 140.635 328.064 140.635 327.224C140.635 326.384 139.987 325.736 139.195 325.736C138.355 325.736 137.707 326.384 137.707 327.224C137.707 328.064 138.355 328.712 139.195 328.712ZM143.157 337.376C143.157 341.456 145.869 344.216 149.373 344.216C151.797 344.216 153.501 342.968 154.293 341.552V344H156.501V330.848H154.293V333.248C153.525 331.88 151.845 330.632 149.397 330.632C145.869 330.632 143.157 333.272 143.157 337.376ZM154.293 337.4C154.293 340.496 152.229 342.296 149.829 342.296C147.429 342.296 145.389 340.472 145.389 337.376C145.389 334.28 147.429 332.528 149.829 332.528C152.229 332.528 154.293 334.352 154.293 337.4ZM160.192 344H162.376V326.24H160.192V344ZM166.098 344H168.282V330.848H166.098V344ZM167.226 328.712C168.018 328.712 168.666 328.064 168.666 327.224C168.666 326.384 168.018 325.736 167.226 325.736C166.386 325.736 165.738 326.384 165.738 327.224C165.738 328.064 166.386 328.712 167.226 328.712ZM172.484 340.4C172.484 343.04 173.804 344 176.132 344H178.1V342.152H176.492C175.148 342.152 174.668 341.696 174.668 340.4V332.648H178.1V330.848H174.668V327.536H172.484V330.848H170.78V332.648H172.484V340.4ZM179.93 337.376C179.93 341.456 182.642 344.216 186.146 344.216C188.57 344.216 190.274 342.968 191.066 341.552V344H193.274V330.848H191.066V333.248C190.298 331.88 188.618 330.632 186.17 330.632C182.642 330.632 179.93 333.272 179.93 337.376ZM191.066 337.4C191.066 340.496 189.002 342.296 186.602 342.296C184.202 342.296 182.162 340.472 182.162 337.376C182.162 334.28 184.202 332.528 186.602 332.528C189.002 332.528 191.066 334.352 191.066 337.4ZM197.421 332.72L199.725 327.272H197.301L195.885 332.72H197.421ZM202.959 339.272H204.783L205.047 327.272H202.695L202.959 339.272ZM205.407 342.656C205.407 341.816 204.759 341.168 203.967 341.168C203.127 341.168 202.479 341.816 202.479 342.656C202.479 343.496 203.127 344.144 203.967 344.144C204.759 344.144 205.407 343.496 205.407 342.656Z" fill="black"/>
<path d="M492.392 228.128H501.968V226.28H492.392V228.128ZM517.673 219.272H512.465V236H517.673C523.169 236 526.553 232.856 526.553 227.672C526.553 222.488 523.169 219.272 517.673 219.272ZM514.649 234.2V221.048H517.673C522.041 221.048 524.321 223.592 524.321 227.672C524.321 231.752 522.041 234.2 517.673 234.2H514.649ZM535.026 224.48C537.282 224.48 539.202 225.896 539.178 228.464H530.874C531.114 225.896 532.89 224.48 535.026 224.48ZM541.17 231.944H538.818C538.338 233.36 537.09 234.368 535.122 234.368C532.89 234.368 531.018 232.904 530.85 230.24H541.362C541.41 229.784 541.434 229.4 541.434 228.92C541.434 225.32 538.938 222.632 535.122 222.632C531.282 222.632 528.618 225.248 528.618 229.4C528.618 233.576 531.378 236.216 535.122 236.216C538.386 236.216 540.498 234.344 541.17 231.944ZM553.773 232.424C553.677 227.72 546.045 229.424 546.045 226.304C546.045 225.248 547.005 224.48 548.613 224.48C550.365 224.48 551.373 225.44 551.469 226.76H553.653C553.509 224.192 551.589 222.632 548.685 222.632C545.757 222.632 543.861 224.288 543.861 226.304C543.861 231.2 551.637 229.496 551.637 232.424C551.637 233.504 550.677 234.368 548.949 234.368C547.101 234.368 545.973 233.408 545.853 232.136H543.597C543.741 234.536 545.901 236.216 548.973 236.216C551.877 236.216 553.773 234.584 553.773 232.424ZM556.856 236H559.04V222.848H556.856V236ZM557.984 220.712C558.776 220.712 559.424 220.064 559.424 219.224C559.424 218.384 558.776 217.736 557.984 217.736C557.144 217.736 556.496 218.384 556.496 219.224C556.496 220.064 557.144 220.712 557.984 220.712ZM561.946 229.376C561.946 233.456 564.658 236.216 568.186 236.216C570.586 236.216 572.29 234.944 573.082 233.528V236.288C573.082 239.096 571.33 240.584 569.002 240.584C566.842 240.584 565.282 239.504 564.802 237.92H562.642C563.074 240.728 565.546 242.48 569.002 242.48C572.866 242.48 575.29 239.912 575.29 236.288V222.848H573.082V225.248C572.314 223.832 570.586 222.632 568.186 222.632C564.658 222.632 561.946 225.272 561.946 229.376ZM573.082 229.4C573.082 232.496 571.018 234.296 568.618 234.296C566.218 234.296 564.178 232.472 564.178 229.376C564.178 226.28 566.218 224.528 568.618 224.528C571.018 224.528 573.082 226.352 573.082 229.4ZM588.605 236H590.765V228.248C590.765 224.48 588.437 222.608 585.389 222.608C583.613 222.608 582.029 223.352 581.165 224.72V222.848H578.981V236H581.165V228.728C581.165 225.896 582.701 224.504 584.933 224.504C587.141 224.504 588.605 225.872 588.605 228.56V236ZM610.187 232.424C610.091 227.72 602.459 229.424 602.459 226.304C602.459 225.248 603.419 224.48 605.027 224.48C606.779 224.48 607.787 225.44 607.883 226.76H610.067C609.923 224.192 608.003 222.632 605.099 222.632C602.171 222.632 600.275 224.288 600.275 226.304C600.275 231.2 608.051 229.496 608.051 232.424C608.051 233.504 607.091 234.368 605.363 234.368C603.515 234.368 602.387 233.408 602.267 232.136H600.011C600.155 234.536 602.315 236.216 605.387 236.216C608.291 236.216 610.187 234.584 610.187 232.424ZM618.862 224.48C621.118 224.48 623.038 225.896 623.014 228.464H614.71C614.95 225.896 616.726 224.48 618.862 224.48ZM625.006 231.944H622.654C622.174 233.36 620.926 234.368 618.958 234.368C616.726 234.368 614.854 232.904 614.686 230.24H625.198C625.246 229.784 625.27 229.4 625.27 228.92C625.27 225.32 622.774 222.632 618.958 222.632C615.118 222.632 612.454 225.248 612.454 229.4C612.454 233.576 615.214 236.216 618.958 236.216C622.222 236.216 624.334 234.344 625.006 231.944ZM647.137 236H649.297V228.248C649.297 224.48 646.969 222.608 643.969 222.608C641.953 222.608 640.081 223.64 639.313 225.536C638.449 223.568 636.649 222.608 634.489 222.608C632.761 222.608 631.201 223.352 630.337 224.744V222.848H628.153V236H630.337V228.752C630.337 225.92 631.849 224.504 634.057 224.504C636.217 224.504 637.657 225.872 637.657 228.56V236H639.817V228.752C639.817 225.92 641.329 224.504 643.537 224.504C645.697 224.504 647.137 225.872 647.137 228.56V236ZM655.063 225.272V222.848H652.879V242.24H655.063V233.576C655.879 234.92 657.583 236.216 659.983 236.216C663.511 236.216 666.223 233.456 666.223 229.376C666.223 225.272 663.511 222.632 659.983 222.632C657.583 222.632 655.855 223.88 655.063 225.272ZM663.991 229.376C663.991 232.472 661.951 234.296 659.527 234.296C657.151 234.296 655.063 232.496 655.063 229.4C655.063 226.352 657.151 224.528 659.527 224.528C661.951 224.528 663.991 226.28 663.991 229.376ZM669.098 236H671.282V218.24H669.098V236ZM675.004 236H677.188V222.848H675.004V236ZM676.132 220.712C676.924 220.712 677.572 220.064 677.572 219.224C677.572 218.384 676.924 217.736 676.132 217.736C675.292 217.736 674.644 218.384 674.644 219.224C674.644 220.064 675.292 220.712 676.132 220.712ZM680.095 229.4C680.095 233.576 682.759 236.216 686.503 236.216C689.767 236.216 691.903 234.392 692.575 231.776H690.223C689.743 233.432 688.447 234.368 686.503 234.368C684.103 234.368 682.327 232.664 682.327 229.4C682.327 226.184 684.103 224.48 686.503 224.48C688.447 224.48 689.767 225.488 690.223 227.072H692.575C691.903 224.312 689.767 222.632 686.503 222.632C682.759 222.632 680.095 225.272 680.095 229.4ZM701.081 224.48C703.337 224.48 705.257 225.896 705.233 228.464H696.929C697.169 225.896 698.945 224.48 701.081 224.48ZM707.225 231.944H704.873C704.393 233.36 703.145 234.368 701.177 234.368C698.945 234.368 697.073 232.904 696.905 230.24H707.417C707.465 229.784 707.489 229.4 707.489 228.92C707.489 225.32 704.993 222.632 701.177 222.632C697.337 222.632 694.673 225.248 694.673 229.4C694.673 233.576 697.433 236.216 701.177 236.216C704.441 236.216 706.553 234.344 707.225 231.944ZM492.392 264.128H501.968V262.28H492.392V264.128ZM512.465 272H514.649V255.272H512.465V272ZM527.995 272H530.155V264.248C530.155 260.48 527.827 258.608 524.779 258.608C523.003 258.608 521.419 259.352 520.555 260.72V258.848H518.371V272H520.555V264.728C520.555 261.896 522.091 260.504 524.323 260.504C526.531 260.504 527.995 261.872 527.995 264.56V272ZM534.203 268.4C534.203 271.04 535.523 272 537.851 272H539.819V270.152H538.211C536.867 270.152 536.387 269.696 536.387 268.4V260.648H539.819V258.848H536.387V255.536H534.203V258.848H532.499V260.648H534.203V268.4ZM554.129 258.848H551.945V266.072C551.945 268.904 550.433 270.296 548.177 270.296C545.969 270.296 544.505 268.928 544.505 266.264V258.848H542.345V266.552C542.345 270.32 544.721 272.192 547.745 272.192C549.497 272.192 551.105 271.424 551.945 270.056V272H554.129V258.848ZM557.817 272H560.001V258.848H557.817V272ZM558.945 256.712C559.737 256.712 560.385 256.064 560.385 255.224C560.385 254.384 559.737 253.736 558.945 253.736C558.105 253.736 557.457 254.384 557.457 255.224C557.457 256.064 558.105 256.712 558.945 256.712ZM564.203 268.4C564.203 271.04 565.523 272 567.851 272H569.819V270.152H568.211C566.867 270.152 566.387 269.696 566.387 268.4V260.648H569.819V258.848H566.387V255.536H564.203V258.848H562.499V260.648H564.203V268.4ZM572.465 272H574.649V258.848H572.465V272ZM573.593 256.712C574.385 256.712 575.033 256.064 575.033 255.224C575.033 254.384 574.385 253.736 573.593 253.736C572.753 253.736 572.105 254.384 572.105 255.224C572.105 256.064 572.753 256.712 573.593 256.712ZM576.811 258.848L581.971 272H584.515L589.675 258.848H587.347L583.267 269.984L579.163 258.848H576.811ZM604.305 265.4C604.305 261.248 601.401 258.632 597.657 258.632C593.937 258.632 591.009 261.248 591.009 265.4C591.009 269.576 593.841 272.216 597.561 272.216C601.305 272.216 604.305 269.576 604.305 265.4ZM593.241 265.4C593.241 262.088 595.329 260.528 597.633 260.528C599.889 260.528 602.073 262.088 602.073 265.4C602.073 268.736 599.841 270.296 597.561 270.296C595.281 270.296 593.241 268.736 593.241 265.4ZM492.392 300.128H501.968V298.28H492.392V300.128ZM521.417 296.192C521.417 298.064 520.337 299.408 517.865 299.408H514.649V293.072H517.865C520.361 293.072 521.417 294.296 521.417 296.192ZM512.465 291.272V308H514.649V301.16H517.289L521.273 308H523.889L519.689 300.992C522.497 300.368 523.673 298.328 523.673 296.192C523.673 293.456 521.801 291.272 517.865 291.272H512.465ZM532.659 296.48C534.915 296.48 536.835 297.896 536.811 300.464H528.507C528.747 297.896 530.523 296.48 532.659 296.48ZM538.803 303.944H536.451C535.971 305.36 534.723 306.368 532.755 306.368C530.523 306.368 528.651 304.904 528.483 302.24H538.995C539.043 301.784 539.067 301.4 539.067 300.92C539.067 297.32 536.571 294.632 532.755 294.632C528.915 294.632 526.251 297.248 526.251 301.4C526.251 305.576 529.011 308.216 532.755 308.216C536.019 308.216 538.131 306.344 538.803 303.944ZM551.406 304.424C551.31 299.72 543.678 301.424 543.678 298.304C543.678 297.248 544.638 296.48 546.246 296.48C547.998 296.48 549.006 297.44 549.102 298.76H551.286C551.142 296.192 549.222 294.632 546.318 294.632C543.39 294.632 541.494 296.288 541.494 298.304C541.494 303.2 549.27 301.496 549.27 304.424C549.27 305.504 548.31 306.368 546.582 306.368C544.734 306.368 543.606 305.408 543.486 304.136H541.23C541.374 306.536 543.534 308.216 546.606 308.216C549.51 308.216 551.406 306.584 551.406 304.424ZM556.673 297.272V294.848H554.489V314.24H556.673V305.576C557.489 306.92 559.193 308.216 561.593 308.216C565.121 308.216 567.833 305.456 567.833 301.376C567.833 297.272 565.121 294.632 561.593 294.632C559.193 294.632 557.465 295.88 556.673 297.272ZM565.601 301.376C565.601 304.472 563.561 306.296 561.137 306.296C558.761 306.296 556.673 304.496 556.673 301.4C556.673 298.352 558.761 296.528 561.137 296.528C563.561 296.528 565.601 298.28 565.601 301.376ZM583.187 301.4C583.187 297.248 580.283 294.632 576.539 294.632C572.819 294.632 569.891 297.248 569.891 301.4C569.891 305.576 572.723 308.216 576.443 308.216C580.187 308.216 583.187 305.576 583.187 301.4ZM572.123 301.4C572.123 298.088 574.211 296.528 576.515 296.528C578.771 296.528 580.955 298.088 580.955 301.4C580.955 304.736 578.723 306.296 576.443 306.296C574.163 306.296 572.123 304.736 572.123 301.4ZM595.683 308H597.843V300.248C597.843 296.48 595.515 294.608 592.467 294.608C590.691 294.608 589.107 295.352 588.243 296.72V294.848H586.059V308H588.243V300.728C588.243 297.896 589.779 296.504 592.011 296.504C594.219 296.504 595.683 297.872 595.683 300.56V308ZM610.867 304.424C610.771 299.72 603.139 301.424 603.139 298.304C603.139 297.248 604.099 296.48 605.707 296.48C607.459 296.48 608.467 297.44 608.563 298.76H610.747C610.603 296.192 608.683 294.632 605.779 294.632C602.851 294.632 600.955 296.288 600.955 298.304C600.955 303.2 608.731 301.496 608.731 304.424C608.731 305.504 607.771 306.368 606.043 306.368C604.195 306.368 603.067 305.408 602.947 304.136H600.691C600.835 306.536 602.995 308.216 606.067 308.216C608.971 308.216 610.867 306.584 610.867 304.424ZM613.95 308H616.134V294.848H613.95V308ZM615.078 292.712C615.87 292.712 616.518 292.064 616.518 291.224C616.518 290.384 615.87 289.736 615.078 289.736C614.238 289.736 613.59 290.384 613.59 291.224C613.59 292.064 614.238 292.712 615.078 292.712ZM618.296 294.848L623.456 308H626L631.16 294.848H628.832L624.752 305.984L620.648 294.848H618.296ZM638.901 296.48C641.157 296.48 643.077 297.896 643.053 300.464H634.749C634.989 297.896 636.765 296.48 638.901 296.48ZM645.045 303.944H642.693C642.213 305.36 640.965 306.368 638.997 306.368C636.765 306.368 634.893 304.904 634.725 302.24H645.237C645.285 301.784 645.309 301.4 645.309 300.92C645.309 297.32 642.813 294.632 638.997 294.632C635.157 294.632 632.493 297.248 632.493 301.4C632.493 305.576 635.253 308.216 638.997 308.216C642.261 308.216 644.373 306.344 645.045 303.944ZM492.392 336.128H501.968V334.28H492.392V336.128ZM523.337 339.44C523.337 333.248 514.313 335.936 514.313 331.616C514.313 329.816 515.729 328.88 517.529 328.928C519.569 328.952 520.625 330.224 520.769 331.352H523.169C522.905 328.808 520.817 327.056 517.625 327.056C514.313 327.056 512.081 328.928 512.081 331.688C512.081 337.904 521.129 335.024 521.129 339.536C521.129 341.12 519.881 342.32 517.769 342.32C515.441 342.32 514.457 340.928 514.313 339.536H511.985C512.033 342.296 514.409 344.168 517.769 344.168C521.393 344.168 523.337 341.816 523.337 339.44ZM532.143 332.48C534.399 332.48 536.319 333.896 536.295 336.464H527.991C528.231 333.896 530.007 332.48 532.143 332.48ZM538.287 339.944H535.935C535.455 341.36 534.207 342.368 532.239 342.368C530.007 342.368 528.135 340.904 527.967 338.24H538.479C538.527 337.784 538.551 337.4 538.551 336.92C538.551 333.32 536.055 330.632 532.239 330.632C528.399 330.632 525.735 333.248 525.735 337.4C525.735 341.576 528.495 344.216 532.239 344.216C535.503 344.216 537.615 342.344 538.287 339.944ZM560.418 344H562.578V336.248C562.578 332.48 560.25 330.608 557.25 330.608C555.234 330.608 553.362 331.64 552.594 333.536C551.73 331.568 549.93 330.608 547.77 330.608C546.042 330.608 544.482 331.352 543.618 332.744V330.848H541.434V344H543.618V336.752C543.618 333.92 545.13 332.504 547.338 332.504C549.498 332.504 550.938 333.872 550.938 336.56V344H553.098V336.752C553.098 333.92 554.61 332.504 556.818 332.504C558.978 332.504 560.418 333.872 560.418 336.56V344ZM568.345 333.272V330.848H566.161V350.24H568.345V341.576C569.161 342.92 570.865 344.216 573.265 344.216C576.793 344.216 579.505 341.456 579.505 337.376C579.505 333.272 576.793 330.632 573.265 330.632C570.865 330.632 569.137 331.88 568.345 333.272ZM577.273 337.376C577.273 340.472 575.233 342.296 572.809 342.296C570.433 342.296 568.345 340.496 568.345 337.4C568.345 334.352 570.433 332.528 572.809 332.528C575.233 332.528 577.273 334.28 577.273 337.376ZM582.379 344H584.563V326.24H582.379V344ZM588.286 344H590.47V330.848H588.286V344ZM589.414 328.712C590.206 328.712 590.854 328.064 590.854 327.224C590.854 326.384 590.206 325.736 589.414 325.736C588.574 325.736 587.926 326.384 587.926 327.224C587.926 328.064 588.574 328.712 589.414 328.712ZM593.376 337.4C593.376 341.576 596.04 344.216 599.784 344.216C603.048 344.216 605.184 342.392 605.856 339.776H603.504C603.024 341.432 601.728 342.368 599.784 342.368C597.384 342.368 595.608 340.664 595.608 337.4C595.608 334.184 597.384 332.48 599.784 332.48C601.728 332.48 603.048 333.488 603.504 335.072H605.856C605.184 332.312 603.048 330.632 599.784 330.632C596.04 330.632 593.376 333.272 593.376 337.4ZM614.362 332.48C616.618 332.48 618.538 333.896 618.514 336.464H610.21C610.45 333.896 612.226 332.48 614.362 332.48ZM620.506 339.944H618.154C617.674 341.36 616.426 342.368 614.458 342.368C612.226 342.368 610.354 340.904 610.186 338.24H620.698C620.746 337.784 620.77 337.4 620.77 336.92C620.77 333.32 618.274 330.632 614.458 330.632C610.618 330.632 607.954 333.248 607.954 337.4C607.954 341.576 610.714 344.216 614.458 344.216C617.722 344.216 619.834 342.344 620.506 339.944Z" fill="black"/>
<rect x="421" y="159" width="11" height="214" fill="#C4C4C4"/>
<rect x="76" y="170" width="11" height="356" transform="rotate(-90 76 170)" fill="#C4C4C4"/>
</g>
<defs>
<linearGradient id="paint0_linear" x1="393.53" y1="668.06" x2="393.53" y2="457.75" gradientUnits="userSpaceOnUse">
<stop stop-color="#808080" stop-opacity="0.25"/>
<stop offset="0.54" stop-color="#808080" stop-opacity="0.12"/>
<stop offset="1" stop-color="#808080" stop-opacity="0.1"/>
</linearGradient>
<linearGradient id="paint1_linear" x1="121.745" y1="620.777" x2="121.745" y2="620.665" gradientUnits="userSpaceOnUse">
<stop stop-color="#808080" stop-opacity="0.25"/>
<stop offset="0.54" stop-color="#808080" stop-opacity="0.12"/>
<stop offset="1" stop-color="#808080" stop-opacity="0.1"/>
</linearGradient>
<linearGradient id="paint2_linear" x1="29231" y1="171310" x2="29231" y2="122148" gradientUnits="userSpaceOnUse">
<stop stop-color="#808080" stop-opacity="0.25"/>
<stop offset="0.54" stop-color="#808080" stop-opacity="0.12"/>
<stop offset="1" stop-color="#808080" stop-opacity="0.1"/>
</linearGradient>
<linearGradient id="paint3_linear" x1="1240.4" y1="839.557" x2="1240.39" y2="839.469" gradientUnits="userSpaceOnUse">
<stop stop-color="#808080" stop-opacity="0.25"/>
<stop offset="0.54" stop-color="#808080" stop-opacity="0.12"/>
<stop offset="1" stop-color="#808080" stop-opacity="0.1"/>
</linearGradient>
<linearGradient id="paint4_linear" x1="119407" y1="61076.6" x2="115140" y2="24974.8" gradientUnits="userSpaceOnUse">
<stop stop-color="#808080" stop-opacity="0.25"/>
<stop offset="0.54" stop-color="#808080" stop-opacity="0.12"/>
<stop offset="1" stop-color="#808080" stop-opacity="0.1"/>
</linearGradient>
<clipPath id="clip0">
<rect width="865.8" height="668.07" fill="white"/>
</clipPath>
</defs>
</svg>
