<svg width="512" height="512" viewBox="0 0 512 512" fill="none" xmlns="http://www.w3.org/2000/svg">
<path d="M256 512C397.385 512 512 397.385 512 256C512 114.615 397.385 0 256 0C114.615 0 0 114.615 0 256C0 397.385 114.615 512 256 512Z" fill="#800000" fill-opacity="0.85"/>
<path d="M512 256C512 249.17 511.732 242.403 511.207 235.708L409.316 133.818L388.998 144.55L297.05 52.602L214.95 92.906L258.025 135.981L134.808 399.247L247.42 511.859C250.269 511.953 253.129 512 256.001 512C397.385 512 512 397.385 512 256Z" fill="#800000"/>
<path d="M231.077 71.403H280.923V135.91H231.077V71.403Z" fill="#555A66"/>
<path d="M255.818 71.403H280.923V135.91H255.818V71.403Z" fill="#333940"/>
<path d="M102.659 133.819L137.9 98.5783L183.507 144.185L148.266 179.426L102.659 133.819Z" fill="#555A66"/>
<path d="M363.728 179.479L328.487 144.238L374.094 98.6311L409.335 133.872L363.728 179.479Z" fill="#333940"/>
<path d="M256 450.242C349.639 450.242 425.548 374.333 425.548 280.694C425.548 187.055 349.639 111.146 256 111.146C162.361 111.146 86.452 187.055 86.452 280.694C86.452 374.333 162.361 450.242 256 450.242Z" fill="#707789"/>
<path d="M256 111.146C255.939 111.146 255.879 111.148 255.818 111.148V450.239C255.879 450.239 255.939 450.241 256 450.241C349.639 450.241 425.548 374.332 425.548 280.693C425.548 187.054 349.639 111.146 256 111.146V111.146Z" fill="#555A66"/>
<path d="M256 409.559C327.17 409.559 384.865 351.864 384.865 280.694C384.865 209.524 327.17 151.829 256 151.829C184.83 151.829 127.135 209.524 127.135 280.694C127.135 351.864 184.83 409.559 256 409.559Z" fill="white"/>
<path d="M256 151.829C255.939 151.829 255.879 151.831 255.818 151.831V409.556C255.879 409.556 255.939 409.558 256 409.558C327.17 409.558 384.865 351.863 384.865 280.693C384.865 209.523 327.17 151.829 256 151.829V151.829Z" fill="#E9EDF5"/>
<path d="M214.95 52.602H297.049V92.906H214.95V52.602Z" fill="#707789"/>
<path d="M255.818 52.602H297.05V92.906H255.818V52.602Z" fill="#555A66"/>
<path d="M245.342 270.084L316.042 199.384L337.252 220.594L266.552 291.294L245.342 270.084Z" fill="#333940"/>
<path d="M256 306.968C270.511 306.968 282.274 295.205 282.274 280.694C282.274 266.183 270.511 254.42 256 254.42C241.489 254.42 229.726 266.183 229.726 280.694C229.726 295.205 241.489 306.968 256 306.968Z" fill="#707789"/>
<path d="M256 254.419C255.939 254.419 255.879 254.423 255.818 254.424V306.963C255.879 306.963 255.939 306.968 256 306.968C270.511 306.968 282.274 295.205 282.274 280.694C282.274 266.183 270.511 254.419 256 254.419Z" fill="#555A66"/>
</svg>
